<svg width="221" height="236" viewBox="0 0 221 236" fill="none" xmlns="http://www.w3.org/2000/svg">
<g clip-path="url(#clip0_407_4822)">
<path d="M19.2818 46.4458C19.2818 46.4458 12.705 54.4338 13.5802 76.3216C14.4518 98.208 31.7393 113.206 49.1554 119.572C66.5715 125.938 94.5611 129.999 130.554 119.572C166.543 109.142 194.36 117.661 207.396 128.278C207.396 128.278 210.347 113.323 184.752 98.3248C159.156 83.3308 104.423 91.2211 97.7998 91.5873C91.1763 91.9535 67.7135 95.4281 47.1622 82.8732C26.611 70.3183 19.2818 46.4458 19.2818 46.4458Z" fill="#FFFBEE"/>
<path d="M111.411 76.0805C146.618 77.6501 174.511 73.2481 178.677 60.4513C182.84 47.6545 176.72 32.6901 171.422 26.1796C166.125 19.6691 160.557 15.2588 154.311 14.5114C149.322 13.9143 145.091 14.5114 145.33 18.5479C145.618 23.418 152.988 32.8334 149.821 34.9695C148.056 36.1575 146.451 33.0324 145.33 29.9797C143.184 24.1419 141.793 19.6475 137.944 15.4484C132.455 9.46067 126.395 4.01502 115.89 2.53589C105.385 1.05676 99.2507 2.74957 98.5408 6.26643C97.831 9.7833 100.179 11.3804 103.689 18.5479C104.661 20.5266 106.009 22.9331 106.508 25.9269C106.508 28.8599 102.884 28.1718 100.921 25.4889C98.9571 22.806 98.2619 21.497 96.43 18.5479C92.8112 12.7219 84.4634 6.33331 74.5024 5.59374C64.5414 4.85418 56.4512 7.97766 55.7645 10.755C55.0779 13.5323 62.5744 18.9059 64.7304 22.8201C66.0506 25.2197 65.4934 26.6241 63.5363 26.6241C61.022 26.4825 60.1847 23.1072 54.5159 20.4991C48.8471 17.8909 39.1794 21.9114 36.3434 24.3818C33.8158 26.5809 30.2168 30.0584 29.4672 37.5524C28.7175 45.0424 31.9749 47.5601 38.1677 52.7331C44.3573 57.9061 52.8688 63.0595 58.9323 65.6873C64.9958 68.3151 76.2107 74.507 111.418 76.0805H111.411Z" fill="#FF5E23"/>
<path d="M84.3194 57.6935C82.4332 66.672 76.685 93.6339 72.0771 110.993C71.7688 112.156 70.4958 112.773 69.3787 112.31C67.1742 111.401 63.4084 110.232 59.0458 110.501C52.081 110.931 50.9903 113.735 57.7397 116.968C63.057 119.516 73.7777 121.663 78.0872 122.457C79.1281 122.647 80.1359 122.004 80.3845 120.986C82.5956 112.021 92.4279 72.2889 95.1496 63.8291C95.4081 63.0281 95.1231 62.1516 94.4402 61.6493L87.4554 56.5084C86.2885 55.6483 84.6145 56.2786 84.3194 57.6869V57.6935Z" fill="#FF5E23"/>
<path d="M121.65 60.668L134.323 107.271C134.323 107.271 134.926 109.063 137.638 108.765C140.35 108.466 162.471 102.458 162.471 102.458C162.471 102.458 165.328 109.031 166.767 109.513C170.901 110.895 171.027 106.303 169.667 100.147C168.756 96.0076 167.427 92.8791 166.651 91.2738C166.309 90.5647 165.514 90.1871 164.741 90.3644L143.509 95.2427C143.207 95.3116 142.902 95.1475 142.796 94.8619C141.599 91.6283 135.026 73.3561 133.073 56.896L121.643 60.6712L121.65 60.668Z" fill="#FF5E23"/>
<path d="M85.8808 48.6954C88.259 48.6954 90.187 46.4613 90.187 43.7055C90.187 40.9496 88.259 38.7156 85.8808 38.7156C83.5025 38.7156 81.5746 40.9496 81.5746 43.7055C81.5746 46.4613 83.5025 48.6954 85.8808 48.6954Z" fill="white"/>
<path d="M121.345 48.6954C123.723 48.6954 125.651 46.4613 125.651 43.7055C125.651 40.9496 123.723 38.7156 121.345 38.7156C118.967 38.7156 117.039 40.9496 117.039 43.7055C117.039 46.4613 118.967 48.6954 121.345 48.6954Z" fill="white"/>
<path d="M76.5155 54.0136C77.752 53.6262 78.9852 53.3767 80.7322 52.8547C81.2261 53.4588 85.297 61.8858 109.732 61.2719C122.621 60.9174 129.745 52.0898 129.745 52.0898L135.049 54.0169L134.018 55.2217L130.394 53.7838C130.394 53.7838 124.792 61.9941 110.571 62.8378C94.2972 63.803 83.0925 59.1578 80.1223 54.309L77.4636 55.0083L76.5122 54.0201L76.5155 54.0136Z" fill="white"/>
<path d="M129.844 63.212C129.005 58.4486 125.591 57.5261 125.591 57.5261L117.535 60.8976C117.535 60.8976 117.595 62.6014 117.781 63.5501C117.966 64.4988 118.278 68.5334 122.7 69.3968C127.126 70.2569 130.679 67.9754 129.844 63.212ZM121.895 60.3658C121.895 60.3658 121.361 58.0218 122.531 59.9685C124.268 62.864 125.041 66.4915 125.143 66.6491C121.556 63.6158 121.895 60.3658 121.895 60.3658Z" fill="white"/>
<path d="M55.8964 55.9438L50.8841 50.4976C50.8841 50.4976 45.1259 65.8842 34.1234 66.0614C34.1234 66.0614 31.7101 58.918 27.1387 58.7079C22.5673 58.4978 18.6954 59.3087 17.9627 60.3329C17.2268 61.3571 16.5738 62.6079 18.1451 63.2874C18.1451 63.2874 16.0997 64.0786 16.1395 66.1205C16.1693 67.5814 16.892 68.5826 18.7186 68.9864C18.7186 68.9864 17.2467 70.1387 17.6876 72.0165C18.2147 74.2685 20.9098 74.3801 20.9098 74.3801C20.9098 74.3801 19.3948 75.7458 20.2236 77.6006C21.0523 79.4521 23.5154 79.3273 26.2801 78.9236C29.0481 78.5198 31.6703 77.6728 33.7687 75.2731C35.8671 72.8733 35.8141 70.4539 35.8141 70.4539C35.8141 70.4539 39.3777 71.2975 46.9426 66.2781C54.5074 61.2554 55.8997 55.9536 55.8997 55.9536L55.8964 55.9438Z" fill="#FF5E23"/>
<path d="M161.284 59.6501L158.652 66.0155C158.652 66.0155 174.056 64.6729 178.605 73.7893C178.605 73.7893 173.49 78.661 175.137 82.561C176.785 86.461 179.022 89.3696 180.189 89.5731C181.356 89.7766 182.682 89.8226 182.632 88.2403C182.632 88.2403 184.124 89.6322 185.845 88.7819C187.078 88.1746 187.638 87.1701 187.254 85.4827C187.254 85.4827 188.825 86.2476 190.244 85.1314C191.948 83.792 190.97 81.4973 190.97 81.4973C190.97 81.4973 192.74 82.2163 193.986 80.7817C195.233 79.3471 194.139 77.3446 192.69 75.1943C191.241 73.0441 189.468 71.1925 186.587 70.4014C183.706 69.6102 181.664 70.6213 181.664 70.6213C181.664 70.6213 180.958 67.309 173.659 62.9986C166.359 58.6915 161.287 59.6468 161.287 59.6468L161.284 59.6501Z" fill="#FF5E23"/>
</g>
<path d="M65.5015 140.911H70.8993V149.372C71.6556 149.106 72.4999 148.915 73.4367 148.801C73.1842 145.256 72.8787 142.626 72.519 140.913H78.024C78.3119 142.857 78.5541 145.191 78.7524 147.915C78.9491 150.641 79.049 153.356 79.049 156.062C79.049 160.254 78.4367 163.351 77.2135 165.351C75.9903 167.353 74.2987 168.353 72.1401 168.353C70.3399 168.353 68.7848 167.552 67.4706 165.952C66.1564 164.351 65.5 161.893 65.5 158.577V140.911H65.5015ZM70.7642 175.354C71.7172 173.811 73.0403 172.582 74.7319 171.667C76.4235 170.752 78.3295 170.295 80.4528 170.295H93.4071C95.5304 170.295 97.4364 170.752 99.128 171.667C100.82 172.582 102.141 173.811 103.096 175.354C104.049 176.897 104.526 178.585 104.526 180.413V180.869C104.526 183.576 103.536 185.815 101.557 187.586C99.5773 189.358 97.0399 190.492 93.946 190.987C91.4262 191.367 89.0885 191.558 86.9285 191.558C84.7684 191.558 82.466 191.367 79.911 190.987C76.8155 190.49 74.2781 189.358 72.3002 187.586C70.3208 185.814 69.3311 183.574 69.3311 180.869V180.413C69.3311 178.583 69.8083 176.897 70.7613 175.354H70.7642ZM72.356 162.063C73.2194 161.721 73.6511 159.72 73.6511 156.061V155.089C72.6438 155.165 71.9316 155.441 71.519 155.918C71.1049 156.395 70.8979 157.281 70.8979 158.576C70.8979 161.13 71.3839 162.293 72.3545 162.063H72.356ZM77.1063 183.329C77.9697 184.015 79.2649 184.51 80.9932 184.815C83.3676 185.157 85.347 185.329 86.9299 185.329C88.5129 185.329 90.5642 185.157 92.8667 184.815C94.5936 184.51 95.8887 184.015 96.7536 183.329C97.617 182.643 98.0487 181.824 98.0487 180.871V180.414C98.0487 179.348 97.6258 178.442 96.78 177.699C95.9342 176.956 94.8094 176.585 93.4071 176.585H80.4528C79.049 176.585 77.9242 176.956 77.0799 177.699C76.2341 178.442 75.8112 179.348 75.8112 180.414V180.871C75.8112 181.824 76.2429 182.643 77.1063 183.329ZM80.3456 140.911H85.7435V149.372C86.4997 149.106 87.344 148.915 88.2809 148.801C88.0283 145.256 87.7229 142.626 87.3631 140.913H92.8682C93.156 142.857 93.3983 145.191 93.5965 147.915C93.7933 150.641 93.8931 153.356 93.8931 156.062C93.8931 160.254 93.2808 163.351 92.0576 165.351C90.8344 167.353 89.1428 168.353 86.9843 168.353C85.184 168.353 83.629 167.552 82.3147 165.952C81.0005 164.351 80.3441 161.893 80.3441 158.577V140.911H80.3456ZM87.2001 162.063C88.0635 161.721 88.4953 159.72 88.4953 156.061V155.089C87.4879 155.165 86.7758 155.441 86.3631 155.918C85.949 156.395 85.742 157.281 85.742 158.576C85.742 161.13 86.228 162.293 87.1987 162.063H87.2001ZM103.771 139.425V151.202H108.953V158.062H103.771V169.266H97.294V139.425H103.771Z" fill="black" stroke="black" stroke-width="0.587363" stroke-miterlimit="10"/>
<path d="M155.018 162.921H111.189V156.633H144.223V150.346C144.223 147.183 141.003 145.601 134.561 145.601C130.026 145.601 124.125 146.344 116.856 147.83L115.668 141.656C123.225 140.17 129.36 139.427 134.075 139.427C145.158 139.427 150.7 143.067 150.7 150.346V156.633H155.018V162.921ZM115.507 175.269H142.494C143.142 175.269 143.628 175.175 143.951 174.983C144.276 174.792 144.437 174.564 144.437 174.297C144.437 174.106 144.348 173.906 144.167 173.696C143.986 173.488 143.735 173.325 143.411 173.21C142.511 172.906 141.143 172.648 139.308 172.439C137.472 172.231 135.439 172.125 133.208 172.125C127.595 172.125 122.467 172.696 117.825 173.84L116.314 167.665C121.172 166.485 126.659 165.893 132.777 165.893C135.511 165.893 138.003 166.018 140.252 166.265C142.5 166.513 144.237 166.846 145.461 167.265C147.259 167.914 148.618 168.865 149.535 170.124C150.453 171.382 150.911 172.773 150.911 174.297C150.911 175.554 150.578 176.736 149.913 177.842C149.246 178.947 148.276 179.841 146.998 180.529C145.721 181.214 144.218 181.558 142.491 181.558H124.41C124.122 181.863 123.978 182.225 123.978 182.645C123.978 183.254 124.427 183.789 125.327 184.245C126.622 184.855 128.835 185.16 131.966 185.16C135.097 185.16 138.803 184.836 142.762 184.188C146.719 183.539 150.281 182.645 153.449 181.501L155.5 187.446C152.082 188.665 148.249 189.637 144.002 190.361C139.756 191.085 135.798 191.448 132.127 191.448C127.881 191.448 124.713 190.951 122.627 189.962C120.9 189.123 119.612 188.065 118.768 186.789C117.922 185.511 117.499 184.167 117.499 182.758C117.499 182.492 117.534 182.091 117.606 181.557H115.501V175.269H115.507Z" fill="black" stroke="black" stroke-width="0.587363" stroke-miterlimit="10"/>
<path d="M15.1442 221.688H13.4631V225.484H12.2542V217.136H13.4631V220.309H15.1442V221.688ZM1.05312 224.502V217.419H2.18645V219.686H4.37756V217.419H5.45423V224.502H1.05312ZM6.30423 224.502V217.419H7.3809V219.686H9.57201V217.419H10.7242V224.502H6.30423ZM4.37756 220.781H2.18645V223.388H4.37756V220.781ZM9.57201 220.781H7.3809V223.388H9.57201V220.781ZM7.68312 225.919C9.47127 225.919 10.9131 226.152 12.0087 226.618C13.1168 227.071 13.6709 227.789 13.6709 228.771C13.6709 229.741 13.1168 230.459 12.0087 230.924C10.9005 231.378 9.45867 231.604 7.68312 231.604C5.89497 231.604 4.44682 231.378 3.33867 230.924C2.23053 230.459 1.67645 229.741 1.67645 228.771C1.67645 227.789 2.23053 227.071 3.33867 226.618C4.44682 226.152 5.89497 225.919 7.68312 225.919ZM7.68312 230.414C9.01793 230.414 10.1072 230.276 10.9509 229.999C11.8072 229.722 12.2353 229.313 12.2353 228.771C12.2353 228.23 11.8072 227.82 10.9509 227.543C10.1072 227.266 9.01793 227.128 7.68312 227.128C6.3483 227.128 5.24645 227.266 4.37756 227.543C3.52127 227.82 3.09312 228.23 3.09312 228.771C3.09312 229.313 3.52127 229.722 4.37756 229.999C5.24645 230.276 6.3483 230.414 7.68312 230.414ZM31.0949 224.502V231.642H29.7727V217.136H31.0949V223.142H33.0216V224.502H31.0949ZM21.2349 229.432C21.5875 229.432 21.9527 229.407 22.3305 229.357C22.7208 229.294 23.0546 229.206 23.3316 229.092V230.377C23.0168 230.49 22.639 230.578 22.1983 230.641C21.7575 230.704 21.3231 230.736 20.8949 230.736H19.1194V217.702H23.256V219.006H20.4605V229.432H21.2349ZM26.1271 229.432C27.0716 229.432 27.8649 229.262 28.5071 228.922V230.263C27.802 230.578 26.9331 230.736 25.9005 230.736H23.936V217.702H28.1483V219.006H25.2583V229.432H26.1271ZM45.5694 224.502V231.642H44.2094V217.136H45.5694V223.142H47.5716V224.502H45.5694ZM39.3172 229.432C39.972 229.432 40.6268 229.369 41.2816 229.243C41.9364 229.117 42.4716 228.954 42.8872 228.752V230.037C42.4842 230.263 41.9553 230.44 41.3005 230.566C40.6457 230.679 39.9783 230.736 39.2983 230.736H33.8394V223.463H40.0727V219.006H33.8016V217.702H41.4327V224.748H35.1994V229.432H39.3172ZM58.7056 221.744C58.1515 222.727 57.2575 223.457 56.0234 223.936C54.8019 224.414 53.2971 224.653 51.509 224.653V223.388C53.5867 223.375 55.1923 223.029 56.3256 222.349C57.459 221.656 58.0256 220.617 58.0256 219.232V218.76H51.509V217.532H59.4045V219.024C59.4045 219.528 59.3478 220 59.2345 220.441H62.5778V217.136H63.9378V225.088H62.5778V221.744H58.7056ZM64.089 231.416H52.3212V225.957H63.9378V227.203H53.6812V230.188H64.089V231.416ZM78.469 221.461V222.708H66.6256V217.154H67.9856V221.461H78.469ZM65.5867 225.73V224.502H79.3379V225.73H65.5867ZM78.6012 230.188V231.434H66.5879V227.147H67.9667V230.188H78.6012ZM84.4652 224.804V217.419H85.8063V219.61H94.873V217.419H96.2141V224.804H84.4652ZM94.873 220.876H85.8063V223.52H94.873V220.876ZM91.0385 227.77V231.982H89.6408V227.77H83.4641V226.448H97.2152V227.77H91.0385ZM112.426 221.914H110.424V227.921H109.064V217.136H110.424V220.536H112.426V221.914ZM102.585 222.16C102.094 223.117 101.464 223.904 100.696 224.521C99.9282 225.138 99.053 225.522 98.0708 225.673V224.332C98.9397 224.156 99.6952 223.728 100.337 223.048C100.992 222.368 101.49 221.524 101.83 220.517C102.17 219.509 102.34 218.433 102.34 217.287L103.719 217.362C103.719 218.659 103.53 219.849 103.152 220.932L107.591 224.502L106.76 225.541L102.585 222.16ZM110.84 230.112V231.416H98.9963V226.901H100.375V230.112H110.84ZM124.049 231.642V217.136H125.39V231.642H124.049ZM117.305 217.476C118.111 217.476 118.835 217.671 119.477 218.061C120.12 218.439 120.617 218.974 120.97 219.667C121.335 220.359 121.517 221.146 121.517 222.028C121.517 222.897 121.335 223.677 120.97 224.37C120.604 225.063 120.101 225.604 119.459 225.994C118.829 226.372 118.111 226.561 117.305 226.561C116.487 226.561 115.756 226.372 115.114 225.994C114.472 225.604 113.968 225.069 113.603 224.389C113.238 223.696 113.055 222.909 113.055 222.028C113.055 221.146 113.238 220.359 113.603 219.667C113.968 218.974 114.472 218.439 115.114 218.061C115.756 217.671 116.487 217.476 117.305 217.476ZM117.305 218.779C116.436 218.779 115.731 219.087 115.19 219.704C114.661 220.309 114.396 221.083 114.396 222.028C114.396 222.96 114.661 223.734 115.19 224.351C115.731 224.956 116.436 225.258 117.305 225.258C118.162 225.258 118.854 224.956 119.383 224.351C119.924 223.734 120.195 222.96 120.195 222.028C120.195 221.096 119.924 220.321 119.383 219.704C118.854 219.087 118.162 218.779 117.305 218.779ZM122.802 230.037C122.349 230.263 121.7 230.44 120.856 230.566C120.013 230.679 119.056 230.736 117.985 230.736H112.564V229.394H118.08C119.112 229.394 120.038 229.338 120.856 229.224C121.687 229.099 122.336 228.922 122.802 228.696V230.037ZM144.854 221.877H142.851V227.09H141.491V217.136H142.851V220.517H144.854V221.877ZM130.97 224.937V217.532H138.96V224.937H130.97ZM132.33 218.779V223.709H137.6V218.779H132.33ZM138.375 226.051C138.224 226.668 138.035 227.203 137.808 227.657L143.456 230.358L142.908 231.604L137.053 228.714C136.36 229.546 135.491 230.2 134.446 230.679C133.413 231.157 132.349 231.403 131.254 231.416V230.074C132.123 230.062 132.96 229.886 133.766 229.546C134.584 229.193 135.283 228.696 135.863 228.053C136.442 227.399 136.82 226.643 136.996 225.787L138.375 226.051ZM156.419 225.22V217.136H157.798V225.22H156.419ZM153.813 221.046C153.813 221.789 153.636 222.443 153.284 223.01C152.944 223.577 152.446 224.017 151.791 224.332C151.149 224.647 150.394 224.804 149.525 224.804C148.656 224.804 147.894 224.647 147.239 224.332C146.597 224.017 146.1 223.577 145.747 223.01C145.407 222.443 145.237 221.789 145.237 221.046C145.237 220.315 145.407 219.667 145.747 219.1C146.1 218.533 146.597 218.093 147.239 217.778C147.894 217.463 148.656 217.306 149.525 217.306C150.394 217.306 151.149 217.463 151.791 217.778C152.446 218.093 152.944 218.533 153.284 219.1C153.636 219.667 153.813 220.315 153.813 221.046ZM146.597 221.046C146.597 221.839 146.861 222.469 147.39 222.934C147.932 223.388 148.643 223.614 149.525 223.614C150.394 223.614 151.093 223.388 151.621 222.934C152.163 222.469 152.434 221.839 152.434 221.046C152.434 220.252 152.163 219.629 151.621 219.176C151.093 218.722 150.394 218.496 149.525 218.496C148.656 218.496 147.951 218.722 147.409 219.176C146.868 219.629 146.597 220.252 146.597 221.046ZM155.343 229.036C154.952 229.716 154.461 230.27 153.869 230.698C153.277 231.113 152.641 231.353 151.961 231.416L149.525 229.092C149.122 229.772 148.631 230.314 148.051 230.717C147.472 231.12 146.849 231.353 146.181 231.416V230.112C146.698 230.062 147.183 229.829 147.636 229.413C148.102 228.998 148.48 228.456 148.769 227.789C149.071 227.121 149.248 226.404 149.298 225.636L150.601 225.824C150.576 226.467 150.425 227.197 150.148 228.016L152.32 230.037C153.026 229.848 153.636 229.338 154.153 228.507C154.669 227.676 154.965 226.719 155.04 225.636L156.363 225.843C156.274 226.662 156.13 227.354 155.928 227.921L158.913 230.452L158.1 231.472L155.343 229.036ZM172.424 221.461V222.708H160.58V217.154H161.94V221.461H172.424ZM159.541 225.73V224.502H173.293V225.73H159.541ZM172.556 230.188V231.434H160.543V227.147H161.921V230.188H172.556ZM184.124 220.101C183.381 221.033 182.45 221.782 181.329 222.349C180.208 222.903 179.081 223.193 177.948 223.218V221.933C178.854 221.908 179.755 221.675 180.649 221.234C181.556 220.781 182.336 220.17 182.991 219.402C183.646 218.621 184.061 217.753 184.238 216.796L185.598 217.022C185.447 217.778 185.188 218.464 184.823 219.081L190.736 222.217L190.188 223.312L184.124 220.101ZM191.189 225.862H184.974V228.507H183.614V225.862H177.457V224.634H191.189V225.862ZM190.433 230.188V231.434H178.42V227.336H179.799V230.188H190.433ZM206.381 222.066H204.379V227.921H203.019V217.136H204.379V220.706H206.381V222.066ZM200.242 219.421C200.242 221.423 199.531 222.953 198.108 224.011C196.697 225.069 194.783 225.598 192.366 225.598V224.294C194.393 224.294 195.986 223.885 197.144 223.067C198.303 222.248 198.882 221.083 198.882 219.572V218.798H192.366V217.532H200.242V219.421ZM204.794 230.112V231.416H192.951V226.958H194.33V230.112H204.794ZM208.918 218.458V220.762H219.401V221.877H207.558V217.343H219.25V218.458H208.918ZM206.519 224.427V223.293H220.27V224.427H206.519ZM208.842 229.054V230.396H219.533V231.434H207.52V228.129H217.966V226.826H207.482V225.787H219.288V229.054H208.842Z" fill="black"/>
<defs>
<clipPath id="clip0_407_4822">
<rect width="194" height="130" fill="white" transform="translate(13.5)"/>
</clipPath>
</defs>
</svg>
