<svg width="342" height="44" viewBox="0 0 342 44" fill="none" xmlns="http://www.w3.org/2000/svg">
<rect width="342" height="44" rx="10" fill="#FEE500"/>
<path fill-rule="evenodd" clip-rule="evenodd" d="M79.999 15.0282C75.8089 15.0282 72.4106 17.7144 72.4106 21.028C72.4106 23.1843 73.8508 25.0747 76.0111 26.1324C75.8517 26.725 75.4364 28.2788 75.3537 28.6114C75.2501 29.0238 75.5031 29.0188 75.6704 28.9072C75.8009 28.8206 77.7501 27.4959 78.5917 26.9232C79.0478 26.991 79.5179 27.0268 80 27.0268C84.1911 27.0268 87.5894 24.3406 87.5894 21.028C87.5894 17.7144 84.1901 15.0282 79.999 15.0282Z" fill="#1F1F1F"/>
<path d="M103.597 16.6562C103.597 20.9219 102.425 24.5781 97.2222 27.1719L96.269 25.8594C98.7144 24.6484 100.167 23.2422 100.988 21.5625L96.5972 21.9844L96.3784 20.4844L101.519 20.1562C101.699 19.5 101.808 18.8047 101.863 18.0625H97.1128V16.6562H103.597ZM107.316 15.2656V20.7969H109.41V22.2188H107.316V29.3594H105.582V15.2656H107.316ZM117.425 16.6562C117.425 20.9219 116.253 24.5781 111.05 27.1719L110.097 25.8594C112.542 24.6484 113.996 23.2422 114.816 21.5625L110.425 21.9844L110.207 20.4844L115.347 20.1562C115.527 19.5 115.636 18.8047 115.691 18.0625H110.941V16.6562H117.425ZM121.144 15.2656V20.7969H123.238V22.2188H121.144V29.3594H119.41V15.2656H121.144ZM130.332 16.0625C133.363 16.0625 135.597 17.5781 135.597 19.875C135.597 21.9922 133.777 23.4062 131.191 23.6562V26.25H136.816V27.6719H123.91V26.25H129.472V23.6562C126.902 23.4062 125.082 21.9922 125.097 19.875C125.082 17.5781 127.316 16.0625 130.332 16.0625ZM130.332 17.4688C128.269 17.4531 126.785 18.3906 126.8 19.875C126.785 21.4062 128.269 22.3125 130.332 22.3125C132.425 22.3125 133.894 21.4062 133.894 19.875C133.894 18.3906 132.425 17.4531 130.332 17.4688ZM150.644 26.3125V27.75H137.738V26.3125H143.3V24.0156H139.269V19.3906H147.394V17.6406H139.238V16.2344H149.113V20.7656H141.003V22.5938H149.441V24.0156H145.019V26.3125H150.644ZM159.941 28.1562C157.519 28.1562 155.8 26.8438 155.753 24.9375H157.8C157.863 25.8438 158.769 26.4375 159.941 26.4375C161.191 26.4375 162.082 25.75 162.082 24.75C162.082 23.7344 161.207 23 159.738 23H158.722V21.4375H159.738C160.941 21.4375 161.785 20.7656 161.769 19.7812C161.785 18.8281 161.066 18.1875 159.957 18.1875C158.894 18.1875 157.972 18.7812 157.941 19.7344H155.988C156.035 17.8281 157.753 16.5312 159.972 16.5312C162.269 16.5312 163.753 17.9375 163.738 19.6719C163.753 20.9375 162.91 21.8594 161.675 22.1094V22.2031C163.269 22.4219 164.175 23.4375 164.16 24.8594C164.175 26.7656 162.394 28.1562 159.941 28.1562ZM178.378 26.2969V27.7188H165.472V26.2969H171.05V23.375H172.769V26.2969H178.378ZM177.222 17.3125V18.7188H172.816C172.933 20.4766 174.769 22.0938 177.816 22.5L177.175 23.8594C174.73 23.5156 172.847 22.4297 171.91 20.875C170.972 22.4297 169.105 23.5156 166.66 23.8594L166.003 22.5C169.066 22.0938 170.894 20.4766 171.035 18.7188H166.613V17.3125H171.05V15.4844H172.769V17.3125H177.222ZM190.269 16.4844V23.1562H183.582V16.4844H190.269ZM185.285 17.875V21.7812H188.566V17.875H185.285ZM194.238 15.2656V19.4062H196.207V20.8594H194.238V25.5781H192.503V15.2656H194.238ZM194.8 27.7031V29.1094H185.191V24.5781H186.925V27.7031H194.8ZM209.113 15.2656V29.3906H207.441V15.2656H209.113ZM206.207 15.5156V28.7031H204.55V21.9844H203.207C203.042 24.7344 201.863 26.4375 200.113 26.4219C198.269 26.4375 197.066 24.4844 197.066 21.375C197.066 18.2656 198.269 16.3438 200.113 16.3438C201.824 16.3438 202.988 17.9375 203.191 20.5781H204.55V15.5156H206.207ZM200.113 17.9844C199.222 17.9688 198.66 19.1719 198.675 21.375C198.66 23.5781 199.222 24.7812 200.113 24.7656C201.05 24.7812 201.613 23.5781 201.613 21.375C201.613 19.1719 201.05 17.9688 200.113 17.9844ZM219.894 18.6562C219.878 21.25 221.238 23.8438 223.535 24.8281L222.503 26.2188C220.878 25.4688 219.683 23.9688 219.035 22.125C218.386 24.1172 217.175 25.7422 215.457 26.5469L214.394 25.0938C216.753 24.0781 218.128 21.375 218.128 18.6562V16.4062H219.894V18.6562ZM226.3 15.2656V29.4062H224.55V15.2656H226.3ZM233.441 17.7188C233.441 19.4531 234.566 21.1719 236.785 21.9062L235.91 23.25C234.332 22.7266 233.207 21.6641 232.597 20.3438C231.964 21.7891 230.792 22.9375 229.144 23.5L228.222 22.1562C230.503 21.4062 231.691 19.5781 231.691 17.7188V17.5469H228.707V16.1562H236.378V17.5469H233.441V17.7188ZM239.519 15.2656V18.7969H241.488V20.25H239.519V23.7812H237.785V15.2656H239.519ZM239.519 24.4375V29.3906H237.785V25.8281H230.113V24.4375H239.519ZM253.269 15.2656V20.8906H255.441V22.3281H253.269V29.3906H251.55V15.2656H253.269ZM250.457 17.4375V18.8281H242.128V17.4375H245.472V15.4688H247.207V17.4375H250.457ZM246.347 19.75C248.378 19.75 249.894 21.125 249.894 23.0781C249.894 25.0312 248.378 26.3906 246.347 26.3906C244.285 26.3906 242.769 25.0312 242.785 23.0781C242.769 21.125 244.285 19.75 246.347 19.75ZM246.347 21.1719C245.238 21.1719 244.441 21.9219 244.441 23.0781C244.441 24.2344 245.238 24.9688 246.347 24.9531C247.425 24.9688 248.222 24.2344 248.238 23.0781C248.222 21.9219 247.425 21.1719 246.347 21.1719ZM267.832 15.2656V29.3906H266.082V15.2656H267.832ZM263.613 16.7656C263.613 20.9688 261.988 24.5469 257.035 26.8906L256.128 25.5C259.824 23.7422 261.542 21.3516 261.847 18.1406H256.847V16.7656H263.613Z" fill="#121212"/>
</svg>
