<svg width="24" height="24" viewBox="0 0 24 24" fill="none" xmlns="http://www.w3.org/2000/svg">
<path d="M20.2002 8.86567C20.2001 6.11881 18.6694 4.54218 17.042 4.10492C15.4084 3.66618 13.577 4.33013 12.7393 6.352C12.6154 6.65075 12.3234 6.84516 12 6.84516C11.6766 6.84516 11.3846 6.65075 11.2607 6.352C10.423 4.33013 8.59164 3.66618 6.95801 4.10492C5.33057 4.54218 3.79993 6.11881 3.7998 8.86567C3.7998 11.6001 5.71819 14.2258 7.87793 16.2504C8.9379 17.244 10.0138 18.0535 10.8486 18.6118C11.266 18.8909 11.6172 19.1032 11.8701 19.2426C11.9176 19.2688 11.9619 19.2892 12 19.309C12.0381 19.2892 12.0824 19.2688 12.1299 19.2426C12.3828 19.1032 12.734 18.8909 13.1514 18.6118C13.9862 18.0535 15.0621 17.244 16.1221 16.2504C18.2818 14.2258 20.2002 11.6001 20.2002 8.86567ZM21.7998 8.86567C21.7998 12.3002 19.4434 15.3303 17.2158 17.4184C16.0821 18.4811 14.9359 19.3434 14.041 19.9418C13.5937 20.241 13.2031 20.4782 12.9023 20.644C12.7533 20.7262 12.6175 20.7957 12.5029 20.8471C12.4464 20.8724 12.3838 20.8983 12.3213 20.9194C12.2846 20.9318 12.1552 20.976 12 20.976C11.8448 20.976 11.7154 20.9318 11.6787 20.9194C11.6162 20.8983 11.5536 20.8724 11.4971 20.8471C11.3825 20.7957 11.2467 20.7262 11.0977 20.644C10.7969 20.4782 10.4063 20.241 9.95898 19.9418C9.06412 19.3434 7.91791 18.4811 6.78418 17.4184C4.55661 15.3303 2.2002 12.3002 2.2002 8.86567C2.20033 5.44403 4.16979 3.19759 6.54199 2.56C8.49443 2.03543 10.6521 2.63194 12 4.43207C13.3479 2.63194 15.5056 2.03543 17.458 2.56C19.8302 3.19759 21.7997 5.44403 21.7998 8.86567Z" fill="black"/>
</svg>
