<svg width="25" height="24" viewBox="0 0 25 24" fill="none" xmlns="http://www.w3.org/2000/svg">
<path d="M20.375 17.0007V11.4527C20.375 10.9184 20.3745 10.6511 20.3096 10.4024C20.252 10.1821 20.1575 9.97356 20.0296 9.78513C19.8852 9.5725 19.6846 9.39618 19.2824 9.04431L14.4824 4.84431C13.7358 4.19103 13.3625 3.86455 12.9424 3.74031C12.5722 3.63083 12.1776 3.63083 11.8074 3.74031C11.3876 3.86446 11.0148 4.19063 10.2694 4.84292L5.46777 9.04432C5.06564 9.39618 4.86504 9.5725 4.7207 9.78513C4.59279 9.97356 4.49755 10.1821 4.43997 10.4024C4.375 10.6511 4.375 10.9184 4.375 11.4527V17.0007C4.375 17.9325 4.375 18.3983 4.52724 18.7658C4.73023 19.2559 5.11932 19.6457 5.60938 19.8487C5.97692 20.0009 6.44286 20.001 7.37474 20.001C8.30663 20.001 8.77308 20.0009 9.14062 19.8487C9.63068 19.6457 10.0197 19.256 10.2227 18.7659C10.3749 18.3984 10.375 17.9324 10.375 17.0006V16.0006C10.375 14.896 11.2704 14.0006 12.375 14.0006C13.4796 14.0006 14.375 14.896 14.375 16.0006V17.0006C14.375 17.9324 14.375 18.3984 14.5272 18.7659C14.7302 19.256 15.1193 19.6457 15.6094 19.8487C15.9769 20.0009 16.4429 20.001 17.3747 20.001C18.3066 20.001 18.7731 20.0009 19.1406 19.8487C19.6307 19.6457 20.0197 19.2559 20.2227 18.7658C20.3749 18.3983 20.375 17.9325 20.375 17.0007Z" fill="#FF5E23" stroke="#FF5E23" stroke-width="1.6" stroke-linecap="round" stroke-linejoin="round"/>
</svg>
