<svg width="16" height="16" viewBox="0 0 16 16" fill="none" xmlns="http://www.w3.org/2000/svg">
<path d="M4.9965 1.30908V1.31028C5.4272 1.30735 5.84476 1.45894 6.17141 1.73934C6.45842 1.98573 6.65811 2.31621 6.74415 2.68136L6.77417 2.83956L6.77477 2.84495C6.84711 3.39236 6.9807 3.93001 7.17401 4.44734C7.29384 4.76572 7.32013 5.11187 7.24906 5.44449C7.17795 5.77718 7.01259 6.0823 6.77297 6.32419L6.77117 6.32659L6.29628 6.79999C7.03566 7.97167 8.02826 8.96282 9.20203 9.70095L9.67932 9.22515C9.92168 8.98594 10.2279 8.82091 10.5612 8.74994C10.8939 8.67917 11.2399 8.70513 11.5584 8.82425C12.0124 8.99331 12.4823 9.1173 12.9603 9.19399L13.1656 9.22395L13.1704 9.22455C13.6034 9.28554 13.999 9.50337 14.2817 9.83638C14.5613 10.1659 14.7105 10.5855 14.7031 11.0169L14.7037 12.8554C14.7047 13.1032 14.6537 13.3486 14.5542 13.5757C14.4548 13.8027 14.3091 14.0068 14.1262 14.1743C13.9433 14.3418 13.7273 14.4695 13.4922 14.5489C13.257 14.6283 13.0076 14.6575 12.7604 14.6352C12.7572 14.6349 12.754 14.6343 12.7508 14.634C10.7731 14.4195 8.87313 13.7452 7.20403 12.6648C5.65198 11.6795 4.33563 10.3655 3.34911 8.81586C2.2646 7.14334 1.58953 5.23901 1.37873 3.25784L1.37753 3.24885C1.35529 3.00288 1.385 2.75481 1.46398 2.52076C1.54298 2.2867 1.66998 2.07157 1.8368 1.88915C2.00362 1.70677 2.20664 1.5611 2.43296 1.46129C2.65933 1.36149 2.90412 1.30933 3.15159 1.30908H4.9965ZM3.08255 2.41769C3.01284 2.42502 2.94461 2.44324 2.88023 2.47162C2.79435 2.50949 2.71719 2.56481 2.65389 2.63402C2.59066 2.7032 2.54276 2.78497 2.51281 2.87372C2.48342 2.96087 2.4716 3.05298 2.47919 3.14458C2.67222 4.95366 3.28931 6.69204 4.28027 8.21901L4.28327 8.22321C5.12734 9.54906 6.23569 10.686 7.53843 11.5634L7.80139 11.7354L7.80559 11.7378C9.32689 12.7225 11.0583 13.338 12.8606 13.5349C12.9542 13.5433 13.0484 13.5326 13.1374 13.5026C13.2265 13.4725 13.3088 13.424 13.3781 13.3606C13.4475 13.297 13.5031 13.2196 13.5408 13.1334C13.5786 13.0473 13.5976 12.9542 13.5973 12.8602V11.0031C13.6013 10.8377 13.5442 10.6764 13.437 10.5501C13.3298 10.4239 13.1797 10.3413 13.0155 10.3182C12.3858 10.2349 11.7675 10.0808 11.1724 9.85915L11.1706 9.85855C11.0497 9.81324 10.9181 9.80349 10.7918 9.83039C10.6654 9.85732 10.5493 9.92004 10.4574 10.0108L9.67872 10.788C9.50259 10.9636 9.23055 11.0001 9.01412 10.8773C7.38846 9.9546 6.04215 8.61081 5.11777 6.98816C4.99489 6.77209 5.0318 6.50049 5.20783 6.32479L5.9883 5.54577C6.07813 5.45433 6.13984 5.33907 6.16661 5.21378C6.19353 5.08762 6.18386 4.9564 6.13839 4.83566L6.13779 4.83446C5.91509 4.23875 5.76061 3.61975 5.67731 2.98937C5.65329 2.82944 5.57269 2.68265 5.44977 2.57709C5.32536 2.47029 5.166 2.41248 5.0019 2.4141H3.15279L3.08255 2.41769Z" fill="#454545"/>
</svg>
