<svg width="24" height="24" viewBox="0 0 24 24" fill="none" xmlns="http://www.w3.org/2000/svg">
<path fill-rule="evenodd" clip-rule="evenodd" d="M17.146 9.62693L10.6767 16.2923L6.8544 12.3542L8.14604 11.1005L10.6767 13.7079L15.8544 8.37327L17.146 9.62693Z" fill="black"/>
<path fill-rule="evenodd" clip-rule="evenodd" d="M12.0002 3.9001C7.52671 3.9001 3.90022 7.52659 3.90022 12.0001C3.90022 16.4736 7.52671 20.1001 12.0002 20.1001C16.4737 20.1001 20.1002 16.4736 20.1002 12.0001C20.1002 7.52659 16.4737 3.9001 12.0002 3.9001ZM2.10022 12.0001C2.10022 6.53248 6.5326 2.1001 12.0002 2.1001C17.4678 2.1001 21.9002 6.53248 21.9002 12.0001C21.9002 17.4677 17.4678 21.9001 12.0002 21.9001C6.5326 21.9001 2.10022 17.4677 2.10022 12.0001Z" fill="black"/>
</svg>
