<svg width="240" height="240" viewBox="0 0 240 240" fill="none" xmlns="http://www.w3.org/2000/svg">
<rect width="240" height="240" fill="#F6F6F6"/>
<g clip-path="url(#clip0_969_18699)">
<path d="M122.727 126.204C138.516 126.908 151.024 124.934 152.893 119.196C154.759 113.457 152.015 106.746 149.639 103.826C147.264 100.907 144.767 98.9289 141.966 98.5937C139.728 98.3259 137.831 98.5937 137.938 100.404C138.067 102.588 141.373 106.81 139.952 107.768C139.161 108.301 138.441 106.899 137.938 105.53C136.976 102.912 136.352 100.897 134.626 99.0139C132.164 96.3287 129.447 93.8865 124.736 93.2232C120.025 92.5599 117.274 93.3191 116.955 94.8962C116.637 96.4733 117.69 97.1896 119.264 100.404C119.7 101.291 120.305 102.37 120.528 103.713C120.528 105.028 118.903 104.72 118.023 103.517C117.142 102.313 116.83 101.726 116.009 100.404C114.386 97.7912 110.642 94.9262 106.175 94.5945C101.708 94.2629 98.0802 95.6636 97.7723 96.9091C97.4643 98.1546 100.826 100.564 101.793 102.32C102.385 103.396 102.135 104.026 101.258 104.026C100.13 103.962 99.7545 102.448 97.2123 101.279C94.6701 100.109 90.3346 101.912 89.0628 103.02C87.9293 104.006 86.3154 105.566 85.9792 108.926C85.643 112.285 87.1037 113.414 89.8809 115.734C92.6567 118.054 96.4737 120.365 99.1929 121.544C101.912 122.722 106.941 125.499 122.73 126.204H122.727Z" fill="white"/>
<path d="M110.578 117.958C109.732 121.985 107.154 134.076 105.088 141.861C104.949 142.382 104.378 142.659 103.877 142.451C102.889 142.043 101.2 141.519 99.2437 141.64C96.1203 141.833 95.6312 143.09 98.6579 144.54C101.042 145.683 105.85 146.646 107.783 147.002C108.25 147.087 108.702 146.799 108.813 146.342C109.805 142.322 114.214 124.504 115.434 120.71C115.55 120.351 115.423 119.958 115.116 119.732L111.984 117.427C111.461 117.041 110.71 117.324 110.578 117.956V117.958Z" fill="white"/>
<path d="M127.317 119.293L133.001 140.192C133.001 140.192 133.271 140.996 134.487 140.862C135.703 140.728 145.624 138.034 145.624 138.034C145.624 138.034 146.905 140.981 147.55 141.197C149.404 141.817 149.461 139.758 148.851 136.997C148.442 135.141 147.846 133.738 147.498 133.018C147.345 132.7 146.988 132.531 146.642 132.61L137.12 134.798C136.985 134.829 136.848 134.755 136.801 134.627C136.264 133.177 133.316 124.983 132.44 117.601L127.314 119.294L127.317 119.293Z" fill="white"/>
<path d="M111.279 113.924C112.345 113.924 113.21 112.922 113.21 111.686C113.21 110.451 112.345 109.449 111.279 109.449C110.212 109.449 109.348 110.451 109.348 111.686C109.348 112.922 110.212 113.924 111.279 113.924Z" fill="white"/>
<path d="M127.183 113.924C128.25 113.924 129.114 112.922 129.114 111.686C129.114 110.451 128.25 109.449 127.183 109.449C126.117 109.449 125.252 110.451 125.252 111.686C125.252 112.922 126.117 113.924 127.183 113.924Z" fill="white"/>
<path d="M107.08 116.309C107.634 116.135 108.187 116.023 108.971 115.789C109.192 116.06 111.018 119.839 121.976 119.564C127.756 119.405 130.95 115.446 130.95 115.446L133.329 116.31L132.867 116.851L131.242 116.206C131.242 116.206 128.729 119.888 122.352 120.266C115.054 120.699 110.029 118.616 108.697 116.441L107.505 116.755L107.078 116.312L107.08 116.309Z" fill="white"/>
<path d="M130.989 120.433C130.612 118.296 129.081 117.883 129.081 117.883L125.469 119.395C125.469 119.395 125.496 120.159 125.579 120.584C125.662 121.01 125.802 122.819 127.785 123.206C129.77 123.592 131.363 122.569 130.989 120.433ZM127.424 119.156C127.424 119.156 127.184 118.105 127.709 118.978C128.488 120.277 128.834 121.903 128.881 121.974C127.272 120.614 127.424 119.156 127.424 119.156Z" fill="white"/>
<path d="M97.8293 117.174L95.5815 114.732C95.5815 114.732 92.9993 121.632 88.0652 121.712C88.0652 121.712 86.9829 118.508 84.9329 118.414C82.8828 118.32 81.1464 118.683 80.8179 119.143C80.4879 119.602 80.195 120.163 80.8997 120.468C80.8997 120.468 79.9824 120.822 80.0003 121.738C80.0136 122.393 80.3377 122.842 81.1568 123.023C81.1568 123.023 80.4968 123.54 80.6945 124.382C80.9309 125.392 82.1395 125.442 82.1395 125.442C82.1395 125.442 81.4601 126.055 81.8318 126.886C82.2034 127.717 83.308 127.661 84.5478 127.48C85.7892 127.299 86.9651 126.919 87.9061 125.843C88.8471 124.766 88.8234 123.681 88.8234 123.681C88.8234 123.681 90.4215 124.06 93.814 121.809C97.2064 119.556 97.8308 117.179 97.8308 117.179L97.8293 117.174Z" fill="white"/>
<path d="M145.091 118.837L143.91 121.691C143.91 121.691 150.818 121.089 152.858 125.178C152.858 125.178 150.564 127.362 151.303 129.111C152.042 130.86 153.045 132.165 153.569 132.256C154.092 132.347 154.687 132.368 154.664 131.658C154.664 131.658 155.333 132.282 156.105 131.901C156.658 131.629 156.909 131.178 156.737 130.422C156.737 130.422 157.441 130.765 158.078 130.264C158.842 129.663 158.403 128.634 158.403 128.634C158.403 128.634 159.197 128.957 159.756 128.313C160.315 127.67 159.824 126.772 159.175 125.808C158.525 124.843 157.73 124.013 156.438 123.658C155.146 123.303 154.23 123.757 154.23 123.757C154.23 123.757 153.914 122.271 150.64 120.338C147.367 118.407 145.092 118.835 145.092 118.835L145.091 118.837Z" fill="white"/>
</g>
<defs>
<clipPath id="clip0_969_18699">
<rect width="80" height="54.034" fill="white" transform="translate(80 92.9829)"/>
</clipPath>
</defs>
</svg>
