<svg width="343" height="194" viewBox="0 0 343 194" fill="none" xmlns="http://www.w3.org/2000/svg">
<rect y="0.9375" width="343" height="192.938" rx="12" fill="#F6F6F6"/>
<g clip-path="url(#clip0_1509_25117)">
<path d="M175.398 106.274C197.962 107.28 215.839 104.458 218.509 96.2566C221.177 88.055 217.255 78.4641 213.86 74.2914C210.465 70.1188 206.896 67.2922 202.893 66.8131C199.695 66.4305 196.984 66.8131 197.137 69.4002C197.322 72.5215 202.045 78.556 200.015 79.925C198.884 80.6864 197.855 78.6835 197.137 76.727C195.761 72.9854 194.87 70.1049 192.403 67.4137C188.885 63.5761 185.001 60.0859 178.269 59.1379C171.536 58.1899 167.604 59.2748 167.149 61.5288C166.694 63.7828 168.199 64.8065 170.449 69.4002C171.071 70.6684 171.936 72.2107 172.256 74.1295C172.256 76.0093 169.933 75.5682 168.675 73.8487C167.416 72.1293 166.97 71.2903 165.796 69.4002C163.477 65.6662 158.127 61.5717 151.743 61.0977C145.358 60.6237 140.173 62.6256 139.733 64.4056C139.293 66.1856 144.098 69.6296 145.48 72.1383C146.326 73.6763 145.969 74.5763 144.714 74.5763C143.103 74.4856 142.566 72.3223 138.933 70.6507C135.3 68.9791 129.104 71.5559 127.286 73.1392C125.666 74.5486 123.359 76.7774 122.879 81.5804C122.399 86.3809 124.486 87.9945 128.455 91.3099C132.422 94.6254 137.877 97.9282 141.764 99.6124C145.65 101.297 152.837 105.265 175.402 106.274H175.398Z" fill="white"/>
<path d="M158.033 94.4885C156.824 100.243 153.14 117.523 150.187 128.649C149.989 129.394 149.173 129.789 148.457 129.493C147.044 128.91 144.631 128.161 141.835 128.333C137.371 128.609 136.672 130.406 140.998 132.478C144.405 134.111 151.277 135.487 154.039 135.996C154.706 136.118 155.352 135.706 155.511 135.054C156.928 129.308 163.23 103.843 164.974 98.4208C165.14 97.9075 164.957 97.3457 164.519 97.0238L160.043 93.7289C159.295 93.1777 158.222 93.5816 158.033 94.4842V94.4885Z" fill="white"/>
<path d="M181.959 96.3955L190.081 126.264C190.081 126.264 190.468 127.413 192.206 127.221C193.944 127.03 208.121 123.18 208.121 123.18C208.121 123.18 209.953 127.392 210.875 127.701C213.524 128.587 213.605 125.643 212.734 121.698C212.15 119.045 211.298 117.04 210.8 116.011C210.582 115.557 210.072 115.315 209.577 115.428L195.968 118.555C195.775 118.599 195.58 118.494 195.512 118.311C194.745 116.238 190.531 104.528 189.28 93.978L181.954 96.3976L181.959 96.3955Z" fill="white"/>
<path d="M159.036 88.7228C160.56 88.7228 161.796 87.291 161.796 85.5247C161.796 83.7585 160.56 82.3267 159.036 82.3267C157.512 82.3267 156.276 83.7585 156.276 85.5247C156.276 87.291 157.512 88.7228 159.036 88.7228Z" fill="white"/>
<path d="M181.767 88.7228C183.291 88.7228 184.527 87.291 184.527 85.5247C184.527 83.7585 183.291 82.3267 181.767 82.3267C180.242 82.3267 179.007 83.7585 179.007 85.5247C179.007 87.291 180.242 88.7228 181.767 88.7228Z" fill="white"/>
<path d="M153.035 92.1285C153.828 91.8802 154.618 91.7203 155.738 91.3857C156.054 91.7729 158.663 97.1739 174.324 96.7804C182.585 96.5532 187.15 90.8955 187.15 90.8955L190.55 92.1306L189.889 92.9027L187.567 91.9812C187.567 91.9812 183.976 97.2433 174.862 97.784C164.432 98.4026 157.25 95.4254 155.347 92.3178L153.643 92.766L153.033 92.1327L153.035 92.1285Z" fill="white"/>
<path d="M187.203 98.0245C186.666 94.9716 184.478 94.3804 184.478 94.3804L179.315 96.5412C179.315 96.5412 179.353 97.6332 179.472 98.2412C179.591 98.8493 179.791 101.435 182.625 101.988C185.461 102.54 187.739 101.077 187.203 98.0245ZM182.109 96.2003C182.109 96.2003 181.767 94.6981 182.517 95.9458C183.63 97.8015 184.125 100.126 184.191 100.227C181.892 98.2833 182.109 96.2003 182.109 96.2003Z" fill="white"/>
<path d="M139.814 93.368L136.602 89.8774C136.602 89.8774 132.912 99.7389 125.86 99.8525C125.86 99.8525 124.313 95.2742 121.383 95.1396C118.453 95.0049 115.972 95.5246 115.502 96.181C115.031 96.8375 114.612 97.6391 115.619 98.0746C115.619 98.0746 114.308 98.5817 114.334 99.8904C114.353 100.827 114.816 101.468 115.987 101.727C115.987 101.727 115.043 102.466 115.326 103.669C115.664 105.113 117.391 105.184 117.391 105.184C117.391 105.184 116.42 106.059 116.951 107.248C117.482 108.435 119.061 108.355 120.833 108.096C122.607 107.837 124.288 107.294 125.633 105.756C126.977 104.218 126.943 102.668 126.943 102.668C126.943 102.668 129.227 103.208 134.076 99.9914C138.924 96.7723 139.817 93.3743 139.817 93.3743L139.814 93.368Z" fill="white"/>
<path d="M207.359 95.744L205.672 99.8237C205.672 99.8237 215.545 98.9631 218.46 104.806C218.46 104.806 215.182 107.928 216.238 110.428C217.293 112.927 218.728 114.792 219.475 114.922C220.223 115.052 221.073 115.082 221.041 114.068C221.041 114.068 221.997 114.96 223.1 114.415C223.89 114.026 224.25 113.382 224.003 112.3C224.003 112.3 225.01 112.791 225.919 112.075C227.012 111.217 226.385 109.746 226.385 109.746C226.385 109.746 227.519 110.207 228.318 109.287C229.117 108.368 228.416 107.085 227.487 105.706C226.559 104.328 225.422 103.142 223.576 102.635C221.73 102.128 220.421 102.776 220.421 102.776C220.421 102.776 219.968 100.653 215.29 97.8901C210.612 95.1296 207.361 95.7419 207.361 95.7419L207.359 95.744Z" fill="white"/>
</g>
<defs>
<clipPath id="clip0_1509_25117">
<rect width="114.333" height="77.2235" fill="white" transform="translate(114.333 58.7944)"/>
</clipPath>
</defs>
</svg>
