<svg width="16" height="17" viewBox="0 0 16 17" fill="none" xmlns="http://www.w3.org/2000/svg">
<path d="M13.5653 8.49967C13.5653 5.42591 11.0738 2.93436 8.00001 2.93436C4.92623 2.93436 2.43467 5.42591 2.43467 8.49967C2.43467 11.5734 4.92623 14.065 8.00001 14.065C11.0738 14.065 13.5653 11.5734 13.5653 8.49967ZM7.44933 4.83068C7.44933 4.52668 7.69601 4.28 8.00001 4.28C8.30399 4.28002 8.55069 4.52669 8.55069 4.83068V8.15983L10.6925 9.23073C10.9644 9.36668 11.0745 9.69764 10.9386 9.96954C10.811 10.2243 10.5125 10.3372 10.2517 10.2383L10.2003 10.2156L7.75393 8.99242C7.56754 8.89922 7.44944 8.70865 7.44933 8.50027V4.83068ZM14.6667 8.49967C14.6667 12.1814 11.6818 15.1663 8.00001 15.1663C4.31823 15.1663 1.33331 12.1814 1.33331 8.49967C1.33331 4.81791 4.31823 1.83301 8.00001 1.83301C11.6818 1.83301 14.6667 4.81791 14.6667 8.49967Z" fill="#454545"/>
</svg>
