<svg width="194" height="192" viewBox="0 0 194 192" fill="none" xmlns="http://www.w3.org/2000/svg">
<path d="M5.78182 46.4458C5.78182 46.4458 -0.795031 54.4338 0.0802024 76.3216C0.951808 98.208 18.2393 113.206 35.6554 119.572C53.0715 125.938 81.0611 129.999 117.054 119.572C153.043 109.142 180.86 117.661 193.896 128.278C193.896 128.278 196.847 113.323 171.252 98.3248C145.656 83.3308 90.9234 91.2211 84.2998 91.5873C77.6763 91.9535 54.2135 95.4281 33.6622 82.8732C13.111 70.3183 5.78182 46.4458 5.78182 46.4458Z" fill="#FFFBEE"/>
<path d="M97.9109 76.0805C133.118 77.6501 161.011 73.2481 165.177 60.4513C169.34 47.6545 163.22 32.6901 157.922 26.1796C152.625 19.6691 147.057 15.2588 140.811 14.5114C135.822 13.9143 131.591 14.5114 131.83 18.5479C132.118 23.418 139.488 32.8334 136.321 34.9695C134.556 36.1575 132.951 33.0324 131.83 29.9797C129.684 24.1419 128.293 19.6475 124.444 15.4484C118.955 9.46067 112.895 4.01502 102.39 2.53589C91.8852 1.05676 85.7507 2.74957 85.0408 6.26643C84.331 9.7833 86.6795 11.3804 90.1889 18.5479C91.1607 20.5266 92.5093 22.9331 93.0082 25.9269C93.0082 28.8599 89.3845 28.1718 87.4208 25.4889C85.4571 22.806 84.7619 21.497 82.93 18.5479C79.3112 12.7219 70.9634 6.33331 61.0024 5.59374C51.0414 4.85418 42.9512 7.97766 42.2645 10.755C41.5779 13.5323 49.0744 18.9059 51.2304 22.8201C52.5506 25.2197 51.9934 26.6241 50.0363 26.6241C47.522 26.4825 46.6847 23.1072 41.0159 20.4991C35.3471 17.8909 25.6794 21.9114 22.8434 24.3818C20.3158 26.5809 16.7168 30.0584 15.9672 37.5524C15.2175 45.0424 18.4749 47.5601 24.6677 52.7331C30.8573 57.9061 39.3688 63.0595 45.4323 65.6873C51.4958 68.3151 62.7107 74.507 97.9175 76.0805H97.9109Z" fill="#FF5E23"/>
<path d="M70.8194 57.6935C68.9332 66.672 63.185 93.6339 58.5771 110.993C58.2688 112.156 56.9958 112.773 55.8787 112.31C53.6742 111.401 49.9084 110.232 45.5458 110.501C38.581 110.931 37.4903 113.735 44.2397 116.968C49.557 119.516 60.2777 121.663 64.5872 122.457C65.6281 122.647 66.6359 122.004 66.8845 120.986C69.0956 112.021 78.9279 72.2889 81.6496 63.8291C81.9081 63.0281 81.6231 62.1516 80.9402 61.6493L73.9554 56.5084C72.7885 55.6483 71.1145 56.2786 70.8194 57.6869V57.6935Z" fill="#FF5E23"/>
<path d="M108.15 60.668L120.823 107.271C120.823 107.271 121.426 109.063 124.138 108.765C126.85 108.466 148.971 102.458 148.971 102.458C148.971 102.458 151.828 109.031 153.267 109.513C157.401 110.895 157.527 106.303 156.167 100.147C155.256 96.0076 153.927 92.8791 153.151 91.2738C152.809 90.5647 152.014 90.1871 151.241 90.3644L130.009 95.2427C129.707 95.3116 129.402 95.1475 129.296 94.8619C128.099 91.6283 121.526 73.3561 119.573 56.896L108.143 60.6712L108.15 60.668Z" fill="#FF5E23"/>
<path d="M72.3808 48.6954C74.759 48.6954 76.687 46.4613 76.687 43.7055C76.687 40.9496 74.759 38.7156 72.3808 38.7156C70.0025 38.7156 68.0746 40.9496 68.0746 43.7055C68.0746 46.4613 70.0025 48.6954 72.3808 48.6954Z" fill="white"/>
<path d="M107.845 48.6954C110.223 48.6954 112.151 46.4613 112.151 43.7055C112.151 40.9496 110.223 38.7156 107.845 38.7156C105.467 38.7156 103.539 40.9496 103.539 43.7055C103.539 46.4613 105.467 48.6954 107.845 48.6954Z" fill="white"/>
<path d="M63.0155 54.0136C64.252 53.6262 65.4852 53.3767 67.2322 52.8547C67.7261 53.4588 71.797 61.8858 96.2319 61.2719C109.121 60.9174 116.245 52.0898 116.245 52.0898L121.549 54.0169L120.518 55.2217L116.894 53.7838C116.894 53.7838 111.292 61.9941 97.0706 62.8378C80.7972 63.803 69.5925 59.1578 66.6223 54.309L63.9636 55.0083L63.0122 54.0201L63.0155 54.0136Z" fill="white"/>
<path d="M116.344 63.212C115.505 58.4486 112.091 57.5261 112.091 57.5261L104.035 60.8976C104.035 60.8976 104.095 62.6014 104.281 63.5501C104.466 64.4988 104.778 68.5334 109.2 69.3968C113.626 70.2569 117.179 67.9754 116.344 63.212ZM108.395 60.3658C108.395 60.3658 107.861 58.0218 109.031 59.9685C110.768 62.864 111.541 66.4915 111.643 66.6491C108.056 63.6158 108.395 60.3658 108.395 60.3658Z" fill="white"/>
<path d="M42.3964 55.9438L37.3841 50.4976C37.3841 50.4976 31.6259 65.8842 20.6234 66.0614C20.6234 66.0614 18.2101 58.918 13.6387 58.7079C9.06729 58.4978 5.19536 59.3087 4.46274 60.3329C3.72681 61.3571 3.07376 62.6079 4.64507 63.2874C4.64507 63.2874 2.59971 64.0786 2.63949 66.1205C2.66932 67.5814 3.392 68.5826 5.21857 68.9864C5.21857 68.9864 3.7467 70.1387 4.1876 72.0165C4.71468 74.2685 7.40979 74.3801 7.40979 74.3801C7.40979 74.3801 5.89483 75.7458 6.72358 77.6006C7.55233 79.4521 10.0154 79.3273 12.7801 78.9236C15.5481 78.5198 18.1703 77.6728 20.2687 75.2731C22.3671 72.8733 22.3141 70.4539 22.3141 70.4539C22.3141 70.4539 25.8777 71.2975 33.4426 66.2781C41.0074 61.2554 42.3997 55.9536 42.3997 55.9536L42.3964 55.9438Z" fill="#FF5E23"/>
<path d="M147.784 59.6501L145.152 66.0155C145.152 66.0155 160.556 64.6729 165.105 73.7893C165.105 73.7893 159.99 78.661 161.637 82.561C163.285 86.461 165.522 89.3696 166.689 89.5731C167.856 89.7766 169.182 89.8226 169.132 88.2403C169.132 88.2403 170.624 89.6322 172.345 88.7819C173.578 88.1746 174.138 87.1701 173.754 85.4827C173.754 85.4827 175.325 86.2476 176.744 85.1314C178.448 83.792 177.47 81.4973 177.47 81.4973C177.47 81.4973 179.24 82.2163 180.486 80.7817C181.733 79.3471 180.639 77.3446 179.19 75.1943C177.741 73.0441 175.968 71.1925 173.087 70.4014C170.206 69.6102 168.164 70.6213 168.164 70.6213C168.164 70.6213 167.458 67.309 160.159 62.9986C152.859 58.6915 147.787 59.6468 147.787 59.6468L147.784 59.6501Z" fill="#FF5E23"/>
<path d="M52.0015 140.911H57.3993V149.372C58.1556 149.106 58.9999 148.915 59.9367 148.801C59.6842 145.256 59.3787 142.626 59.019 140.913H64.524C64.8119 142.857 65.0541 145.191 65.2524 147.915C65.4491 150.641 65.549 153.356 65.549 156.062C65.549 160.254 64.9367 163.351 63.7135 165.351C62.4903 167.353 60.7987 168.353 58.6401 168.353C56.8399 168.353 55.2848 167.552 53.9706 165.952C52.6564 164.351 52 161.893 52 158.577V140.911H52.0015ZM57.2642 175.354C58.2172 173.811 59.5403 172.582 61.2319 171.667C62.9235 170.752 64.8295 170.295 66.9528 170.295H79.9071C82.0304 170.295 83.9364 170.752 85.628 171.667C87.3196 172.582 88.6412 173.811 89.5956 175.354C90.5486 176.897 91.0259 178.585 91.0259 180.413V180.869C91.0259 183.576 90.0362 185.815 88.0567 187.586C86.0773 189.358 83.5399 190.492 80.446 190.987C77.9262 191.367 75.5885 191.558 73.4285 191.558C71.2684 191.558 68.966 191.367 66.411 190.987C63.3155 190.49 60.7781 189.358 58.8002 187.586C56.8208 185.814 55.8311 183.574 55.8311 180.869V180.413C55.8311 178.583 56.3083 176.897 57.2613 175.354H57.2642ZM58.856 162.063C59.7194 161.721 60.1511 159.72 60.1511 156.061V155.089C59.1438 155.165 58.4316 155.441 58.019 155.918C57.6049 156.395 57.3979 157.281 57.3979 158.576C57.3979 161.13 57.8839 162.293 58.8545 162.063H58.856ZM63.6063 183.329C64.4697 184.015 65.7649 184.51 67.4932 184.815C69.8676 185.157 71.847 185.329 73.4299 185.329C75.0129 185.329 77.0642 185.157 79.3667 184.815C81.0936 184.51 82.3887 184.015 83.2536 183.329C84.117 182.643 84.5487 181.824 84.5487 180.871V180.414C84.5487 179.348 84.1258 178.442 83.28 177.699C82.4342 176.956 81.3094 176.585 79.9071 176.585H66.9528C65.549 176.585 64.4242 176.956 63.5799 177.699C62.7341 178.442 62.3112 179.348 62.3112 180.414V180.871C62.3112 181.824 62.7429 182.643 63.6063 183.329ZM66.8456 140.911H72.2435V149.372C72.9997 149.106 73.844 148.915 74.7809 148.801C74.5283 145.256 74.2229 142.626 73.8631 140.913H79.3682C79.656 142.857 79.8983 145.191 80.0965 147.915C80.2933 150.641 80.3931 153.356 80.3931 156.062C80.3931 160.254 79.7808 163.351 78.5576 165.351C77.3344 167.353 75.6428 168.353 73.4843 168.353C71.684 168.353 70.129 167.552 68.8147 165.952C67.5005 164.351 66.8441 161.893 66.8441 158.577V140.911H66.8456ZM73.7001 162.063C74.5635 161.721 74.9953 159.72 74.9953 156.061V155.089C73.9879 155.165 73.2758 155.441 72.8631 155.918C72.449 156.395 72.242 157.281 72.242 158.576C72.242 161.13 72.728 162.293 73.6987 162.063H73.7001ZM90.2711 139.425V151.202H95.4531V158.062H90.2711V169.266H83.794V139.425H90.2711Z" fill="black" stroke="black" stroke-width="0.587363" stroke-miterlimit="10"/>
<path d="M141.518 162.921H97.6895V156.633H130.723V150.346C130.723 147.183 127.503 145.601 121.061 145.601C116.526 145.601 110.625 146.344 103.356 147.83L102.168 141.656C109.725 140.17 115.86 139.427 120.575 139.427C131.658 139.427 137.2 143.067 137.2 150.346V156.633H141.518V162.921ZM102.007 175.269H128.994C129.642 175.269 130.128 175.175 130.451 174.983C130.776 174.792 130.937 174.564 130.937 174.297C130.937 174.106 130.848 173.906 130.667 173.696C130.486 173.488 130.235 173.325 129.911 173.21C129.011 172.906 127.643 172.648 125.808 172.439C123.972 172.231 121.939 172.125 119.708 172.125C114.095 172.125 108.967 172.696 104.325 173.84L102.814 167.665C107.672 166.485 113.159 165.893 119.277 165.893C122.011 165.893 124.503 166.018 126.752 166.265C129 166.513 130.737 166.846 131.961 167.265C133.759 167.914 135.118 168.865 136.035 170.124C136.953 171.382 137.411 172.773 137.411 174.297C137.411 175.554 137.078 176.736 136.413 177.842C135.746 178.947 134.776 179.841 133.498 180.529C132.221 181.214 130.718 181.558 128.991 181.558H110.91C110.622 181.863 110.478 182.225 110.478 182.645C110.478 183.254 110.927 183.789 111.827 184.245C113.122 184.855 115.335 185.16 118.466 185.16C121.597 185.16 125.303 184.836 129.262 184.188C133.219 183.539 136.781 182.645 139.949 181.501L142 187.446C138.582 188.665 134.749 189.637 130.502 190.361C126.256 191.085 122.298 191.448 118.627 191.448C114.381 191.448 111.213 190.951 109.127 189.962C107.4 189.123 106.112 188.065 105.268 186.789C104.422 185.511 103.999 184.167 103.999 182.758C103.999 182.492 104.034 182.091 104.106 181.557H102.001V175.269H102.007Z" fill="black" stroke="black" stroke-width="0.587363" stroke-miterlimit="10"/>
</svg>
