<svg width="78" height="26" viewBox="0 0 78 26" fill="none" xmlns="http://www.w3.org/2000/svg">
<path d="M20.0072 15.2323C27.2013 15.553 32.9009 14.6535 33.7522 12.0386C34.6029 9.42373 33.3523 6.36592 32.2699 5.03557C31.1875 3.70521 30.0497 2.80403 28.7735 2.6513C27.7538 2.52928 26.8893 2.6513 26.9382 3.47612C26.9971 4.47127 28.5031 6.3952 27.8558 6.83169C27.4952 7.07445 27.1673 6.43586 26.9382 5.81208C26.4996 4.61918 26.2154 3.7008 25.4289 2.84276C24.3073 1.61924 23.0691 0.506474 20.9225 0.20423C18.7759 -0.0980142 17.5224 0.247893 17.3773 0.966526C17.2323 1.68516 17.7122 2.01152 18.4293 3.47612C18.6279 3.88045 18.9034 4.37218 19.0054 4.98394C19.0054 5.58326 18.2649 5.44264 17.8637 4.89443C17.4624 4.34621 17.3203 4.07874 16.946 3.47612C16.2065 2.28563 14.5008 0.980191 12.4653 0.829069C10.4299 0.677947 8.77675 1.3162 8.63645 1.88371C8.49614 2.45122 10.028 3.54927 10.4685 4.34909C10.7383 4.83943 10.6244 5.1264 10.2245 5.1264C9.71076 5.09746 9.53966 4.40776 8.3813 3.87482C7.22294 3.34187 5.24746 4.1634 4.66794 4.66821C4.15146 5.11756 3.41605 5.82816 3.26287 7.35947C3.10969 8.88998 3.77528 9.40444 5.04073 10.4615C6.3055 11.5185 8.04473 12.5716 9.28374 13.1085C10.5228 13.6455 12.8144 14.9108 20.0085 15.2323H20.0072Z" fill="#FF5E23"/>
<path d="M14.4715 11.4745C14.086 13.3092 12.9114 18.8185 11.9699 22.3658C11.9069 22.6032 11.6468 22.7294 11.4185 22.6348C10.968 22.449 10.1985 22.2101 9.30706 22.2651C7.88387 22.353 7.66101 22.9259 9.04017 23.5866C10.1267 24.1072 12.3174 24.5459 13.198 24.7082C13.4107 24.7471 13.6166 24.6157 13.6674 24.4077C14.1192 22.5757 16.1283 14.4569 16.6845 12.7282C16.7373 12.5646 16.6791 12.3855 16.5395 12.2828L15.1123 11.2323C14.8738 11.0566 14.5317 11.1854 14.4715 11.4732V11.4745Z" fill="#FF5E23"/>
<path d="M22.0995 12.0833L24.6891 21.6061C24.6891 21.6061 24.8124 21.9723 25.3665 21.9113C25.9206 21.8503 30.4408 20.6227 30.4408 20.6227C30.4408 20.6227 31.0247 21.9656 31.3187 22.0642C32.1634 22.3467 32.1892 21.4082 31.9114 20.1504C31.7252 19.3045 31.4535 18.6653 31.295 18.3372C31.2253 18.1923 31.0627 18.1152 30.9048 18.1514L26.5662 19.1482C26.5045 19.1623 26.4422 19.1288 26.4205 19.0704C26.176 18.4097 24.8328 14.6759 24.4338 11.3125L22.0981 12.0839L22.0995 12.0833Z" fill="#FF5E23"/>
<path d="M14.7901 9.63594C15.2761 9.63594 15.67 9.17944 15.67 8.61631C15.67 8.05318 15.2761 7.59668 14.7901 7.59668C14.3041 7.59668 13.9102 8.05318 13.9102 8.61631C13.9102 9.17944 14.3041 9.63594 14.7901 9.63594Z" fill="white"/>
<path d="M22.0372 9.63594C22.5231 9.63594 22.9171 9.17944 22.9171 8.61631C22.9171 8.05318 22.5231 7.59668 22.0372 7.59668C21.5512 7.59668 21.1572 8.05318 21.1572 8.61631C21.1572 9.17944 21.5512 9.63594 22.0372 9.63594Z" fill="white"/>
<path d="M12.8767 10.7227C13.1293 10.6435 13.3813 10.5925 13.7383 10.4859C13.8392 10.6093 14.6711 12.3313 19.6641 12.2058C22.2977 12.1334 23.7535 10.3296 23.7535 10.3296L24.8373 10.7234L24.6266 10.9695L23.8862 10.6757C23.8862 10.6757 22.7414 12.3534 19.8354 12.5258C16.5102 12.723 14.2206 11.7738 13.6137 10.7831L13.0704 10.9259L12.876 10.724L12.8767 10.7227Z" fill="white"/>
<path d="M23.7739 12.6018C23.6025 11.6284 22.9048 11.4399 22.9048 11.4399L21.2588 12.1289C21.2588 12.1289 21.271 12.477 21.3089 12.6709C21.3468 12.8647 21.4105 13.6892 22.3142 13.8656C23.2185 14.0413 23.9446 13.5751 23.7739 12.6018ZM22.1496 12.0202C22.1496 12.0202 22.0405 11.5412 22.2796 11.939C22.6346 12.5307 22.7924 13.2719 22.8134 13.3041C22.0805 12.6843 22.1496 12.0202 22.1496 12.0202Z" fill="white"/>
<path d="M8.66356 11.1178L7.63936 10.0049C7.63936 10.0049 6.46274 13.149 4.21449 13.1852C4.21449 13.1852 3.72135 11.7255 2.78724 11.6826C1.85312 11.6396 1.06193 11.8053 0.91223 12.0146C0.761851 12.2239 0.628406 12.4795 0.949487 12.6184C0.949487 12.6184 0.531539 12.78 0.539668 13.1973C0.545764 13.4958 0.693435 13.7004 1.06667 13.7829C1.06667 13.7829 0.765915 14.0183 0.856007 14.402C0.963712 14.8622 1.51443 14.885 1.51443 14.885C1.51443 14.885 1.20486 15.1641 1.37421 15.5431C1.54355 15.9214 2.04685 15.8959 2.61179 15.8134C3.17741 15.7309 3.71322 15.5579 4.14201 15.0675C4.5708 14.5771 4.55996 14.0827 4.55996 14.0827C4.55996 14.0827 5.28815 14.2551 6.83394 13.2295C8.37974 12.2031 8.66424 11.1198 8.66424 11.1198L8.66356 11.1178Z" fill="#FF5E23"/>
<path d="M30.1985 11.8751L29.6606 13.1758C29.6606 13.1758 32.8085 12.9014 33.7378 14.7642C33.7378 14.7642 32.6926 15.7597 33.0293 16.5566C33.3659 17.3536 33.8232 17.9479 34.0616 17.9895C34.3001 18.0311 34.571 18.0405 34.5609 17.7171C34.5609 17.7171 34.8657 18.0016 35.2172 17.8278C35.4692 17.7037 35.5837 17.4985 35.5051 17.1537C35.5051 17.1537 35.8262 17.31 36.1161 17.0819C36.4643 16.8082 36.2645 16.3393 36.2645 16.3393C36.2645 16.3393 36.6262 16.4862 36.8809 16.1931C37.1356 15.8999 36.9121 15.4907 36.616 15.0513C36.32 14.612 35.9576 14.2336 35.369 14.072C34.7803 13.9103 34.3631 14.1169 34.3631 14.1169C34.3631 14.1169 34.2188 13.4401 32.7272 12.5593C31.2356 11.6792 30.1992 11.8744 30.1992 11.8744L30.1985 11.8751Z" fill="#FF5E23"/>
<path d="M41.5865 3.27447H43.7222V6.62206C44.0214 6.5169 44.3555 6.44138 44.7261 6.39606C44.6262 4.99358 44.5053 3.95305 44.363 3.27505H46.5411C46.655 4.04427 46.7508 4.96802 46.8293 6.04573C46.9071 7.12402 46.9466 8.19825 46.9466 9.26899C46.9466 10.9277 46.7043 12.153 46.2204 12.9442C45.7364 13.7361 45.0671 14.1318 44.2131 14.1318C43.5008 14.1318 42.8856 13.8151 42.3656 13.1819C41.8456 12.5486 41.5859 11.576 41.5859 10.2642V3.27447H41.5865ZM43.6687 16.9019C44.0458 16.2913 44.5693 15.805 45.2385 15.443C45.9078 15.0811 46.6619 14.9004 47.502 14.9004H52.6274C53.4675 14.9004 54.2216 15.0811 54.8909 15.443C55.5602 15.805 56.083 16.2913 56.4607 16.9019C56.8377 17.5125 57.0266 18.18 57.0266 18.9033V19.084C57.0266 20.1547 56.635 21.0407 55.8518 21.7414C55.0687 22.4426 54.0647 22.8911 52.8406 23.0869C51.8437 23.2374 50.9187 23.3129 50.0641 23.3129C49.2095 23.3129 48.2985 23.2374 47.2876 23.0869C46.0629 22.8906 45.059 22.4426 44.2764 21.7414C43.4933 21.0402 43.1017 20.1542 43.1017 19.084V18.9033C43.1017 18.1794 43.2905 17.5125 43.6676 16.9019H43.6687ZM44.2985 11.6434C44.6401 11.5081 44.8109 10.7162 44.8109 9.26841V8.8838C44.4124 8.91401 44.1306 9.02323 43.9674 9.21205C43.8035 9.40087 43.7216 9.7512 43.7216 10.2636C43.7216 11.2739 43.9139 11.7341 44.2979 11.6434H44.2985ZM46.178 20.0571C46.5196 20.3285 47.032 20.5242 47.7158 20.6451C48.6553 20.7805 49.4384 20.8484 50.0647 20.8484C50.691 20.8484 51.5026 20.7805 52.4136 20.6451C53.0968 20.5242 53.6092 20.3285 53.9514 20.0571C54.2931 19.7858 54.4639 19.4616 54.4639 19.0846V18.9039C54.4639 18.4821 54.2965 18.1237 53.9619 17.8297C53.6273 17.5357 53.1822 17.3887 52.6274 17.3887H47.502C46.9466 17.3887 46.5016 17.5357 46.1675 17.8297C45.8329 18.1237 45.6656 18.4821 45.6656 18.9039V19.0846C45.6656 19.4616 45.8364 19.7858 46.178 20.0571ZM47.4596 3.27447H49.5953V6.62206C49.8945 6.5169 50.2285 6.44138 50.5992 6.39606C50.4993 4.99358 50.3784 3.95305 50.2361 3.27505H52.4142C52.5281 4.04427 52.6239 4.96802 52.7023 6.04573C52.7802 7.12402 52.8197 8.19825 52.8197 9.26899C52.8197 10.9277 52.5774 12.153 52.0935 12.9442C51.6095 13.7361 50.9402 14.1318 50.0862 14.1318C49.3739 14.1318 48.7587 13.8151 48.2387 13.1819C47.7187 12.5486 47.459 11.576 47.459 10.2642V3.27447H47.4596ZM50.1716 11.6434C50.5132 11.5081 50.684 10.7162 50.684 9.26841V8.8838C50.2855 8.91401 50.0037 9.02323 49.8405 9.21205C49.6766 9.40087 49.5947 9.7512 49.5947 10.2636C49.5947 11.2739 49.787 11.7341 50.171 11.6434H50.1716ZM56.7279 2.68652V7.34596H58.7782V10.0603H56.7279V14.4931H54.1652V2.68652H56.7279Z" fill="black" stroke="black" stroke-width="0.232391" stroke-miterlimit="10"/>
<path d="M77.0041 11.9821H59.6631V9.49441H72.7327V7.00667C72.7327 5.75524 71.4587 5.12953 68.9099 5.12953C67.1159 5.12953 64.7809 5.4235 61.9051 6.01145L61.4351 3.56845C64.4248 2.9805 66.8521 2.68652 68.7176 2.68652C73.1028 2.68652 75.2954 4.12676 75.2954 7.00667V9.49441H77.0041V11.9821ZM61.3712 16.8676H72.0489C72.3051 16.8676 72.4974 16.8304 72.6253 16.7543C72.7537 16.6788 72.8176 16.5887 72.8176 16.483C72.8176 16.4074 72.7821 16.3284 72.7107 16.2454C72.6392 16.1629 72.5399 16.0984 72.4115 16.0531C72.0553 15.9328 71.5144 15.8305 70.7882 15.748C70.062 15.6655 69.2573 15.6237 68.3748 15.6237C66.1538 15.6237 64.125 15.8497 62.2885 16.3023L61.6907 13.8593C63.6126 13.3922 65.7837 13.158 68.204 13.158C69.2858 13.158 70.2717 13.2074 71.1618 13.305C72.0513 13.4032 72.7385 13.5351 73.2225 13.7007C73.9342 13.9575 74.4716 14.3339 74.8347 14.8318C75.1978 15.3297 75.3791 15.8799 75.3791 16.483C75.3791 16.9803 75.2472 17.448 74.984 17.8855C74.7203 18.3229 74.3362 18.6767 73.8308 18.9486C73.3253 19.22 72.731 19.3559 72.0478 19.3559H64.8936C64.7797 19.4767 64.7228 19.6197 64.7228 19.7858C64.7228 20.0269 64.9006 20.2384 65.2567 20.4191C65.7692 20.6602 66.6447 20.781 67.8833 20.781C69.122 20.781 70.5884 20.6526 72.1547 20.3964C73.7204 20.1396 75.1298 19.7858 76.383 19.3332L77.1946 21.6856C75.8421 22.1678 74.3258 22.5524 72.6456 22.8389C70.9654 23.1253 69.3997 23.2688 67.9472 23.2688C66.267 23.2688 65.0139 23.0724 64.1883 22.6808C63.5051 22.3491 62.9956 21.9302 62.6615 21.4253C62.3269 20.9199 62.1595 20.3883 62.1595 19.8306C62.1595 19.7254 62.1735 19.5668 62.202 19.3553H61.3688V16.8676H61.3712Z" fill="black" stroke="black" stroke-width="0.232391" stroke-miterlimit="10"/>
</svg>
