<svg width="33" height="32" viewBox="0 0 33 32" fill="none" xmlns="http://www.w3.org/2000/svg">
<path d="M15.4121 2.79102C15.8301 1.94437 16.9875 1.89109 17.498 2.63184L17.5908 2.79102L20.6924 9.07715L20.6934 9.07812C20.9968 9.68975 21.5633 10.1262 22.2285 10.2646L22.3623 10.2881L29.2988 11.2959C30.2327 11.4315 30.6402 12.5155 30.0928 13.2295L29.9707 13.3672L24.9502 18.2607C24.6938 18.5115 24.5015 18.821 24.3906 19.1621C24.2798 19.5031 24.2535 19.8662 24.3135 20.2197V20.2207L25.5 27.1299C25.67 28.1219 24.6274 28.8793 23.7373 28.4111L17.5322 25.1484C17.2145 24.9814 16.8609 24.8936 16.502 24.8936C16.1428 24.8936 15.7886 24.9813 15.4707 25.1484L9.2666 28.4111C8.37522 28.879 7.33388 28.1207 7.50391 27.1289L8.69141 20.2207V20.2197C8.75172 19.8662 8.72512 19.5032 8.61426 19.1621C8.51717 18.8635 8.35785 18.5891 8.14746 18.3574L8.05371 18.2607L3.03223 13.3672C2.31163 12.6641 2.71047 11.4403 3.70508 11.2959L10.6426 10.2881C11.365 10.183 11.988 9.73032 12.3115 9.07812L12.3125 9.07715L15.4121 2.79102Z" stroke="#D1D1D1"/>
<path d="M16.5 25.3936C16.2225 25.3938 15.9487 25.4617 15.7031 25.5908L9.49999 28.8535C8.24133 29.5148 6.77171 28.4449 7.01171 27.0449L8.19823 20.1357C8.24498 19.8618 8.22458 19.5806 8.13866 19.3164C8.05273 19.0521 7.90402 18.8122 7.70507 18.6182L2.68359 13.7256C1.6663 12.7336 2.2276 11.0059 3.6328 10.8018L10.5703 9.79297C11.1303 9.71161 11.6126 9.36077 11.8633 8.85547L14.9639 2.56934C15.2783 1.9326 15.8889 1.61383 16.5 1.61328V25.3936Z" fill="#FFC259"/>
</svg>
