<svg width="18" height="18" viewBox="0 0 18 18" fill="none" xmlns="http://www.w3.org/2000/svg">
<path fill-rule="evenodd" clip-rule="evenodd" d="M9.71096 9.96643C12.5885 10.1468 15.2772 11.0804 16.9856 12.2921C16.9948 12.2986 17.0042 12.3053 17.0138 12.312C17.1571 12.4133 17.3317 12.5366 17.4937 12.7421C17.6273 12.9115 17.7456 13.1404 17.8065 13.3474C17.8808 13.5999 17.8802 13.8422 17.8796 14.0427C17.8796 14.0591 17.8795 14.0752 17.8795 14.091L17.8796 15.5525C17.8796 15.7929 17.8796 16.0218 17.8638 16.2147C17.8467 16.425 17.8066 16.6662 17.6837 16.9073C17.5115 17.2454 17.2366 17.5203 16.8986 17.6925C16.6575 17.8154 16.4162 17.8554 16.2059 17.8726C16.0131 17.8884 15.7842 17.8883 15.5437 17.8883H2.43826C2.19778 17.8883 1.9689 17.8884 1.77604 17.8726C1.56573 17.8554 1.3245 17.8154 1.0834 17.6925C0.74534 17.5203 0.470491 17.2454 0.298243 16.9073C0.175394 16.6662 0.135315 16.425 0.118132 16.2147C0.102374 16.0218 0.102397 15.7929 0.102421 15.5525C0.102422 15.5431 0.102422 15.5337 0.102422 15.5243V14.1124C0.102422 14.0955 0.102377 14.0783 0.102331 14.0608C0.101786 13.8548 0.101132 13.6078 0.173278 13.3586C0.233633 13.1501 0.344313 12.932 0.476962 12.7602C0.634991 12.5555 0.81942 12.4213 0.971162 12.3109C0.982818 12.3024 0.994282 12.294 1.00553 12.2858C3.64146 10.3577 6.82245 9.78541 9.71096 9.96643Z" fill="white"/>
<path fill-rule="evenodd" clip-rule="evenodd" d="M4.56772 4.53418C4.56772 2.09123 6.54809 0.11084 8.99099 0.11084C11.4339 0.11084 13.4143 2.09123 13.4143 4.53418C13.4143 6.97712 11.4339 8.95751 8.99099 8.95751C6.54809 8.95751 4.56772 6.97712 4.56772 4.53418Z" fill="white"/>
</svg>
