<svg width="33" height="32" viewBox="0 0 33 32" fill="none" xmlns="http://www.w3.org/2000/svg">
<path d="M15.748 3.17773C16.1661 2.33108 17.3235 2.27781 17.834 3.01855L17.9268 3.17773L21.0283 9.46387L21.0293 9.46484C21.3327 10.0765 21.8992 10.5129 22.5645 10.6514L22.6982 10.6748L29.6348 11.6826C30.5686 11.8183 30.9761 12.9022 30.4287 13.6162L30.3066 13.7539L25.2861 18.6475C25.0297 18.8982 24.8375 19.2078 24.7266 19.5488C24.6157 19.8899 24.5895 20.2529 24.6494 20.6064V20.6074L25.8359 27.5166C26.0059 28.5086 24.9633 29.266 24.0732 28.7979L17.8682 25.5352C17.5504 25.3681 17.1969 25.2803 16.8379 25.2803C16.4788 25.2803 16.1245 25.368 15.8066 25.5352L9.60254 28.7979C8.71116 29.2657 7.66982 28.5075 7.83984 27.5156L9.02734 20.6074V20.6064C9.08766 20.2529 9.06106 19.8899 8.9502 19.5488C8.85311 19.2502 8.69379 18.9759 8.4834 18.7441L8.38965 18.6475L3.36816 13.7539C2.64757 13.0508 3.04641 11.827 4.04102 11.6826L10.9785 10.6748C11.701 10.5697 12.3239 10.117 12.6475 9.46484L12.6484 9.46387L15.748 3.17773Z" stroke="#D1D1D1"/>
</svg>
