<svg width="16" height="16" viewBox="0 0 16 16" fill="none" xmlns="http://www.w3.org/2000/svg">
<path fill-rule="evenodd" clip-rule="evenodd" d="M3.78554 3.3668C4.8845 2.05884 6.44204 1.3999 7.99786 1.3999C9.55347 1.3999 11.1046 2.05202 12.2104 3.36704C14.1203 5.63794 13.8238 8.98841 11.7696 11.0501L11.7688 11.0508C10.603 12.2166 9.26158 13.6335 8.69878 14.228C8.66041 14.2685 8.62566 14.3052 8.59483 14.3377C8.27135 14.6828 7.72442 14.6828 7.40092 14.3378C7.37009 14.3052 7.33533 14.2685 7.29695 14.228C6.73416 13.6335 5.39268 12.2166 4.22693 11.0508L4.22617 11.0501C2.17241 8.98893 1.87486 5.6316 3.78554 3.3668ZM7.99786 2.5999C6.78055 2.5999 5.56497 3.11413 4.70395 4.13915L4.70308 4.14019C3.22769 5.88858 3.42344 8.54396 5.07584 10.2027C6.14804 11.2749 7.36428 12.5542 7.99786 13.2229C8.63144 12.5542 9.84766 11.2749 10.9198 10.2027C12.5719 8.54436 12.7686 5.89508 11.292 4.13944C10.4245 3.10781 9.21557 2.5999 7.99786 2.5999ZM7.99786 6.2399C7.6359 6.2399 7.34453 6.53127 7.34453 6.89324C7.34453 7.2552 7.6359 7.54657 7.99786 7.54657C8.35982 7.54657 8.6512 7.2552 8.6512 6.89324C8.6512 6.53127 8.35983 6.2399 7.99786 6.2399ZM6.14453 6.89324C6.14453 5.86853 6.97316 5.0399 7.99786 5.0399C9.02257 5.0399 9.8512 5.86853 9.8512 6.89324C9.8512 7.91794 9.02257 8.74657 7.99786 8.74657C6.97316 8.74657 6.14453 7.91794 6.14453 6.89324Z" fill="black"/>
</svg>
