<svg width="24" height="24" viewBox="0 0 24 24" fill="none" xmlns="http://www.w3.org/2000/svg">
<path fill-rule="evenodd" clip-rule="evenodd" d="M9.60766 2.06574C10.377 1.89163 11.178 1.7998 11.9998 1.7998C12.8216 1.7998 13.6226 1.89165 14.3921 2.06578C15.2886 2.26868 15.725 3.04131 15.8958 3.58605C16.0282 4.00838 16.3214 4.39132 16.7621 4.6377C17.1749 4.86852 17.6402 4.93603 18.0794 4.85837C18.6448 4.75841 19.5005 4.80625 20.0796 5.48269C20.8157 6.3426 21.4101 7.32341 21.8261 8.39142C22.2103 9.37777 21.6422 10.2545 21.1698 10.6938C20.8082 11.0301 20.592 11.493 20.592 11.9998C20.592 12.5066 20.8082 12.9694 21.1698 13.3057C21.6422 13.7451 22.2103 14.6218 21.8261 15.6081C21.4103 16.6758 20.8161 17.6564 20.0802 18.5161C19.5011 19.1928 18.6451 19.2406 18.0796 19.1405C17.6403 19.0628 17.175 19.1303 16.762 19.3611C16.3212 19.6076 16.028 19.9907 15.8956 20.4131C15.725 20.958 15.2885 21.731 14.3917 21.9339C13.6224 22.108 12.8215 22.1998 11.9998 22.1998C11.178 22.1998 10.377 22.108 9.60769 21.9339C8.71109 21.731 8.27464 20.9583 8.10389 20.4136C7.97152 19.9912 7.67834 19.6083 7.23761 19.3619C6.82473 19.1311 6.35946 19.0636 5.92022 19.1412C5.35486 19.2412 4.49907 19.1934 3.91999 18.5169C3.18389 17.657 2.58944 16.6763 2.17346 15.6083C1.78927 14.6219 2.35743 13.7451 2.82987 13.3058C3.19147 12.9695 3.40775 12.5066 3.40775 11.9998C3.40775 11.4929 3.19147 11.0301 2.82987 10.6938C2.35744 10.2544 1.78928 9.37768 2.17348 8.39128C2.58944 7.32336 3.18386 6.34263 3.91992 5.48277C4.49899 4.80629 5.3548 4.75847 5.92017 4.85846C6.35942 4.93614 6.82469 4.86863 7.23757 4.6378C7.67831 4.39141 7.9715 4.00845 8.10386 3.5861C8.2746 3.04133 8.71105 2.26864 9.60766 2.06574ZM10.0438 3.9151C10.0403 3.91842 10.0353 3.92356 10.0288 3.93117C9.99556 3.97007 9.95129 4.04463 9.9169 4.15433C9.64159 5.03276 9.03567 5.80932 8.16473 6.29623C7.35265 6.75023 6.44041 6.87994 5.5893 6.72942C5.4879 6.71149 5.41103 6.7168 5.36804 6.72711C5.36093 6.72881 5.35566 6.73038 5.35194 6.73164C4.76152 7.42428 4.28621 8.20934 3.95228 9.05952C3.95355 9.06397 3.95545 9.06988 3.95829 9.07742C3.97878 9.13177 4.03145 9.21659 4.12382 9.30249C4.84814 9.97614 5.30775 10.9335 5.30775 11.9998C5.30775 13.0661 4.84813 14.0234 4.1238 14.6971C4.03143 14.783 3.97877 14.8678 3.95828 14.9222C3.95544 14.9297 3.95353 14.9356 3.95226 14.94C4.28621 15.7903 4.76154 16.5754 5.352 17.268C5.35573 17.2693 5.36099 17.2709 5.36811 17.2726C5.41109 17.2829 5.48797 17.2882 5.58936 17.2703C6.44046 17.1197 7.35269 17.2495 8.16477 17.7035C9.03569 18.1904 9.6416 18.9669 9.91692 19.8453C9.95131 19.955 9.99558 20.0295 10.0288 20.0684C10.0353 20.0761 10.0403 20.0812 10.0438 20.0845C10.6712 20.2252 11.3259 20.2998 11.9998 20.2998C12.6736 20.2998 13.3282 20.2252 13.9556 20.0845C13.9591 20.0812 13.9642 20.0761 13.9707 20.0685C14.0039 20.0295 14.0481 19.955 14.0825 19.8452C14.3577 18.9665 14.9637 18.1897 15.8349 17.7027C16.6471 17.2486 17.5595 17.119 18.4107 17.2696C18.5121 17.2875 18.589 17.2822 18.632 17.2719C18.6391 17.2702 18.6444 17.2686 18.6481 17.2674C19.2383 16.5748 19.7135 15.7899 20.0473 14.9399C20.0461 14.9355 20.0442 14.9296 20.0413 14.922C20.0208 14.8677 19.9682 14.7829 19.8758 14.697C19.1515 14.0233 18.692 13.066 18.692 11.9998C18.692 10.9336 19.1515 9.97623 19.8758 9.3026C19.9682 9.2167 20.0208 9.13188 20.0413 9.07753C20.0441 9.07 20.046 9.06409 20.0473 9.05964C19.7134 8.20939 19.238 7.42426 18.6476 6.73158C18.6438 6.73032 18.6386 6.72874 18.6314 6.72704C18.5885 6.71674 18.5116 6.71143 18.4102 6.72935C17.5591 6.87983 16.647 6.7501 15.8349 6.29613C14.964 5.80924 14.3581 5.03273 14.0828 4.15434C14.0484 4.04465 14.0041 3.9701 13.9709 3.9312C13.9644 3.92359 13.9594 3.91845 13.9559 3.91513C13.3284 3.77442 12.6737 3.6998 11.9998 3.6998C11.3259 3.6998 10.6712 3.77441 10.0438 3.9151ZM20.0497 9.04879C20.0498 9.04879 20.0497 9.04917 20.0496 9.04997L20.0497 9.04879ZM3.94984 14.9509C3.94982 14.9509 3.94985 14.9505 3.94997 14.9497L3.94984 14.9509ZM8.04991 11.9998C8.04991 9.81828 9.81839 8.0498 11.9999 8.0498C14.1814 8.0498 15.9499 9.81828 15.9499 11.9998C15.9499 14.1813 14.1814 15.9498 11.9999 15.9498C9.81839 15.9498 8.04991 14.1813 8.04991 11.9998ZM11.9999 9.9498C10.8677 9.9498 9.94991 10.8676 9.94991 11.9998C9.94991 13.132 10.8677 14.0498 11.9999 14.0498C13.1321 14.0498 14.0499 13.132 14.0499 11.9998C14.0499 10.8676 13.1321 9.9498 11.9999 9.9498Z" fill="black"/>
</svg>
