<svg width="34" height="30" viewBox="0 0 34 30" fill="none" xmlns="http://www.w3.org/2000/svg">
<path fill-rule="evenodd" clip-rule="evenodd" d="M0 10C0 4.47715 4.47715 0 10 0H24C29.5228 0 34 4.47715 34 10V15.7662C34 21.2891 29.5228 25.7662 24 25.7662H20.9686L17 30L13.0969 25.7662H10C4.47715 25.7662 0 21.2891 0 15.7662V10Z" fill="black"/>
<path d="M12.7725 8.20898V17.4004H11.3633V9.60547H11.3125L9.11621 11.04V9.70703L11.4014 8.20898H12.7725ZM18.4473 7.625C20.1611 7.625 21.4053 8.57715 21.4053 9.98633C21.4053 11.3828 20.1611 12.3477 18.4473 12.335C16.7334 12.3477 15.5146 11.3828 15.5146 9.98633C15.5146 8.57715 16.7334 7.625 18.4473 7.625ZM18.4473 8.60254C17.4189 8.60254 16.6699 9.14844 16.6826 9.98633C16.6699 10.8115 17.4189 11.3574 18.4473 11.3447C19.501 11.3574 20.25 10.8115 20.25 9.98633C20.25 9.14844 19.501 8.60254 18.4473 8.60254ZM24.1729 7.11719V18.4795H22.9795V7.11719H24.1729ZM14.7021 13.2236C16.7969 13.2236 19.7041 13.1729 22.1924 12.8047L22.2812 13.7061C21.2466 13.9028 20.1675 14.0234 19.1201 14.0996V18.124H17.9141V14.1631C16.8096 14.2139 15.7686 14.2202 14.8672 14.2266L14.7021 13.2236Z" fill="white"/>
</svg>
