<svg width="342" height="44" viewBox="0 0 342 44" fill="none" xmlns="http://www.w3.org/2000/svg">
<rect width="342" height="44" rx="10" fill="black"/>
<path d="M122.461 26.818C122.2 27.4206 121.891 27.9754 121.533 28.4854C121.046 29.1807 120.646 29.662 120.338 29.9293C119.861 30.368 119.35 30.5926 118.803 30.6054C118.41 30.6054 117.936 30.4936 117.385 30.2668C116.831 30.0411 116.323 29.9293 115.858 29.9293C115.37 29.9293 114.847 30.0411 114.288 30.2668C113.727 30.4936 113.276 30.6118 112.931 30.6235C112.406 30.6459 111.883 30.4148 111.361 29.9293C111.028 29.6386 110.611 29.1403 110.111 28.4343C109.576 27.6805 109.135 26.8063 108.79 25.8096C108.42 24.7331 108.235 23.6907 108.235 22.6815C108.235 21.5255 108.485 20.5284 108.985 19.6929C109.378 19.0218 109.902 18.4923 110.556 18.1037C111.211 17.7151 111.919 17.517 112.68 17.5043C113.097 17.5043 113.644 17.6333 114.323 17.8867C115.001 18.141 115.436 18.2699 115.626 18.2699C115.769 18.2699 116.252 18.1191 117.071 17.8185C117.846 17.5398 118.5 17.4244 119.035 17.4698C120.486 17.587 121.577 18.1591 122.302 19.1898C121.004 19.9762 120.362 21.0777 120.375 22.4908C120.386 23.5915 120.786 24.5074 121.57 25.2346C121.926 25.5722 122.323 25.8331 122.765 26.0183C122.669 26.2962 122.568 26.5624 122.461 26.818ZM119.132 13.7201C119.132 14.5828 118.817 15.3883 118.189 16.1339C117.431 17.0202 116.514 17.5323 115.519 17.4515C115.507 17.348 115.499 17.2391 115.499 17.1246C115.499 16.2964 115.86 15.4101 116.5 14.6854C116.82 14.3185 117.226 14.0134 117.719 13.77C118.211 13.5303 118.676 13.3977 119.114 13.375C119.127 13.4903 119.132 13.6057 119.132 13.7201V13.7201Z" fill="white"/>
<path d="M135.312 28H133.141L137.125 16.6875H139.625L143.625 28H141.453L140.516 25.2031H136.25L135.312 28ZM136.797 23.5625H139.969L138.422 19H138.328L136.797 23.5625ZM144.875 31.1875V19.5156H146.828V20.9062H146.953C147.266 20.2969 147.891 19.4062 149.391 19.4062C151.344 19.4062 152.891 20.9375 152.891 23.7656C152.891 26.5625 151.391 28.1562 149.391 28.1562C147.922 28.1562 147.266 27.2812 146.953 26.6562H146.875V31.1875H144.875ZM146.828 23.75C146.828 25.4062 147.547 26.5156 148.844 26.5156C150.156 26.5156 150.859 25.3594 150.859 23.75C150.859 22.1719 150.172 21.0312 148.844 21.0312C147.547 21.0312 146.828 22.1094 146.828 23.75ZM154.453 31.1875V19.5156H156.406V20.9062H156.531C156.844 20.2969 157.469 19.4062 158.969 19.4062C160.922 19.4062 162.469 20.9375 162.469 23.7656C162.469 26.5625 160.969 28.1562 158.969 28.1562C157.5 28.1562 156.844 27.2812 156.531 26.6562H156.453V31.1875H154.453ZM156.406 23.75C156.406 25.4062 157.125 26.5156 158.422 26.5156C159.734 26.5156 160.438 25.3594 160.438 23.75C160.438 22.1719 159.75 21.0312 158.422 21.0312C157.125 21.0312 156.406 22.1094 156.406 23.75ZM166.031 16.6875V28H164.031V16.6875H166.031ZM171.703 28.1719C169.141 28.1719 167.578 26.4688 167.578 23.8125C167.578 21.1875 169.172 19.4062 171.594 19.4062C173.672 19.4062 175.469 20.7031 175.469 23.6875V24.3125H169.547C169.57 25.7578 170.422 26.6094 171.719 26.6094C172.594 26.6094 173.188 26.2344 173.438 25.7344H175.391C175.031 27.2031 173.672 28.1719 171.703 28.1719ZM169.562 22.9531H173.562C173.547 21.7969 172.781 20.9531 171.625 20.9531C170.422 20.9531 169.625 21.8672 169.562 22.9531ZM189.438 26.3125V27.75H176.531V26.3125H182.094V24.0156H178.062V19.3906H186.188V17.6406H178.031V16.2344H187.906V20.7656H179.797V22.5938H188.234V24.0156H183.812V26.3125H189.438ZM207.062 26.3125V27.75H194.156V26.3125H199.719V24.0156H195.688V19.3906H203.812V17.6406H195.656V16.2344H205.531V20.7656H197.422V22.5938H205.859V24.0156H201.438V26.3125H207.062ZM219.219 16.6406V18.2344C219.219 20.125 219.219 22.0781 218.703 25.0469L216.938 24.8906C217.484 22.1094 217.484 20.0625 217.484 18.2344V18.0469H209.344V16.6406H219.219ZM220.859 26.0312V27.4531H207.984V26.0312H220.859ZM233.578 15.2812V25.4844H231.828V15.2812H233.578ZM233.969 27.7031V29.1094H224.234V24.4531H225.984V27.7031H233.969ZM225.875 16.2031C228.016 16.2031 229.672 17.6875 229.672 19.7344C229.672 21.8281 228.016 23.2812 225.875 23.2812C223.719 23.2812 222.062 21.8281 222.062 19.7344C222.062 17.6875 223.719 16.2031 225.875 16.2031ZM225.875 17.7188C224.672 17.7188 223.75 18.5156 223.766 19.7344C223.75 20.9844 224.672 21.7656 225.875 21.7656C227.047 21.7656 227.969 20.9844 227.969 19.7344C227.969 18.5156 227.047 17.7188 225.875 17.7188Z" fill="white"/>
</svg>
