<svg width="14" height="13" viewBox="0 0 14 13" fill="none" xmlns="http://www.w3.org/2000/svg">
<path fill-rule="evenodd" clip-rule="evenodd" d="M7.67211 1.1243L9.02894 3.87472C9.13861 4.0958 9.34978 4.24922 9.59478 4.2848L12.6293 4.7258C13.2447 4.81505 13.4903 5.57105 13.0446 6.00505L10.8484 8.14589C10.7614 8.23088 10.6964 8.33566 10.6588 8.45126C10.6212 8.56687 10.6122 8.68987 10.6325 8.80972L11.1517 11.8326C11.2567 12.4451 10.6133 12.9129 10.0632 12.6236L7.34836 11.1961C7.2407 11.1395 7.12088 11.1099 6.99924 11.1099C6.87759 11.1099 6.75778 11.1395 6.65011 11.1961L3.93586 12.6236C3.3852 12.9129 2.74236 12.4451 2.84736 11.8326L3.36653 8.80972C3.387 8.68987 3.37805 8.56683 3.34046 8.4512C3.30286 8.33556 3.23774 8.23079 3.1507 8.14589L0.953862 6.00505C0.508779 5.57105 0.754362 4.81505 1.3692 4.7258L4.40428 4.2848C4.64928 4.24922 4.86045 4.0958 4.97011 3.87472L6.32636 1.1243C6.6017 0.566638 7.39678 0.566638 7.67211 1.1243Z" fill="#FFC259"/>
</svg>
