<svg width="240" height="192" viewBox="0 0 240 192" fill="none" xmlns="http://www.w3.org/2000/svg">
<rect width="240" height="192" fill="#F6F6F6"/>
<g clip-path="url(#clip0_969_18700)">
<path d="M122.727 102.204C138.516 102.908 151.024 100.934 152.893 95.1955C154.759 89.4568 152.015 82.746 149.639 79.8263C147.264 76.9066 144.767 74.9289 141.966 74.5937C139.728 74.3259 137.831 74.5937 137.938 76.4039C138.067 78.5879 141.373 82.8102 139.952 83.7681C139.161 84.3009 138.441 82.8994 137.938 81.5305C136.976 78.9125 136.352 76.897 134.626 75.0139C132.164 72.3287 129.447 69.8865 124.736 69.2232C120.025 68.5599 117.274 69.3191 116.955 70.8962C116.637 72.4733 117.69 73.1896 119.264 76.4039C119.7 77.2912 120.305 78.3704 120.528 79.713C120.528 81.0283 118.903 80.7197 118.023 79.5165C117.142 78.3134 116.83 77.7264 116.009 76.4039C114.386 73.7912 110.642 70.9262 106.175 70.5945C101.708 70.2629 98.0802 71.6636 97.7723 72.9091C97.4643 74.1546 100.826 76.5644 101.793 78.3197C102.385 79.3958 102.135 80.0256 101.258 80.0256C100.13 79.9621 99.7545 78.4485 97.2123 77.2789C94.6701 76.1092 90.3346 77.9122 89.0628 79.0201C87.9293 80.0062 86.3154 81.5657 85.9792 84.9264C85.643 88.2854 87.1037 89.4144 89.8809 91.7343C92.6567 94.0541 96.4737 96.3651 99.1929 97.5436C101.912 98.722 106.941 101.499 122.73 102.204H122.727Z" fill="white"/>
<path d="M110.578 93.9585C109.732 97.9849 107.154 110.076 105.088 117.861C104.949 118.382 104.378 118.659 103.877 118.451C102.889 118.043 101.2 117.519 99.2437 117.64C96.1203 117.833 95.6312 119.09 98.6579 120.54C101.042 121.683 105.85 122.646 107.783 123.002C108.25 123.087 108.702 122.799 108.813 122.342C109.805 118.322 114.214 100.504 115.434 96.71C115.55 96.3508 115.423 95.9577 115.116 95.7325L111.984 93.427C111.461 93.0413 110.71 93.324 110.578 93.9555V93.9585Z" fill="white"/>
<path d="M127.317 95.2926L133.001 116.192C133.001 116.192 133.271 116.996 134.487 116.862C135.703 116.728 145.624 114.034 145.624 114.034C145.624 114.034 146.905 116.981 147.55 117.197C149.404 117.817 149.461 115.758 148.851 112.997C148.442 111.141 147.846 109.738 147.498 109.018C147.345 108.7 146.988 108.531 146.642 108.61L137.12 110.798C136.985 110.829 136.848 110.755 136.801 110.627C136.264 109.177 133.316 100.983 132.44 93.6011L127.314 95.2941L127.317 95.2926Z" fill="white"/>
<path d="M111.279 89.9242C112.345 89.9242 113.21 88.9223 113.21 87.6865C113.21 86.4506 112.345 85.4487 111.279 85.4487C110.212 85.4487 109.348 86.4506 109.348 87.6865C109.348 88.9223 110.212 89.9242 111.279 89.9242Z" fill="white"/>
<path d="M127.183 89.9242C128.25 89.9242 129.114 88.9223 129.114 87.6865C129.114 86.4506 128.25 85.4487 127.183 85.4487C126.117 85.4487 125.252 86.4506 125.252 87.6865C125.252 88.9223 126.117 89.9242 127.183 89.9242Z" fill="white"/>
<path d="M107.08 92.309C107.634 92.1353 108.187 92.0234 108.971 91.7893C109.192 92.0602 111.018 95.8393 121.976 95.564C127.756 95.405 130.95 91.4463 130.95 91.4463L133.329 92.3105L132.867 92.8508L131.242 92.2059C131.242 92.2059 128.729 95.8879 122.352 96.2662C115.054 96.6991 110.029 94.6159 108.697 92.4415L107.505 92.7551L107.078 92.3119L107.08 92.309Z" fill="white"/>
<path d="M130.989 96.4326C130.612 94.2965 129.081 93.8828 129.081 93.8828L125.469 95.3948C125.469 95.3948 125.496 96.1588 125.579 96.5843C125.662 97.0097 125.802 98.8191 127.785 99.2063C129.77 99.592 131.363 98.5688 130.989 96.4326ZM127.424 95.1563C127.424 95.1563 127.184 94.1051 127.709 94.9781C128.488 96.2766 128.834 97.9034 128.881 97.974C127.272 96.6137 127.424 95.1563 127.424 95.1563Z" fill="white"/>
<path d="M97.8293 93.1743L95.5815 90.7319C95.5815 90.7319 92.9993 97.6321 88.0652 97.7116C88.0652 97.7116 86.9829 94.5081 84.9329 94.4139C82.8828 94.3197 81.1464 94.6833 80.8179 95.1426C80.4879 95.6019 80.195 96.1628 80.8997 96.4676C80.8997 96.4676 79.9824 96.8224 80.0003 97.7381C80.0136 98.3932 80.3377 98.8422 81.1568 99.0233C81.1568 99.0233 80.4968 99.54 80.6945 100.382C80.9309 101.392 82.1395 101.442 82.1395 101.442C82.1395 101.442 81.4601 102.055 81.8318 102.886C82.2034 103.717 83.308 103.661 84.5478 103.48C85.7892 103.299 86.9651 102.919 87.9061 101.843C88.8471 100.766 88.8234 99.6814 88.8234 99.6814C88.8234 99.6814 90.4215 100.06 93.814 97.8088C97.2064 95.5563 97.8308 93.1787 97.8308 93.1787L97.8293 93.1743Z" fill="white"/>
<path d="M145.091 94.8368L143.91 97.6914C143.91 97.6914 150.818 97.0893 152.858 101.178C152.858 101.178 150.564 103.362 151.303 105.111C152.042 106.86 153.045 108.165 153.569 108.256C154.092 108.347 154.687 108.368 154.664 107.658C154.664 107.658 155.333 108.282 156.105 107.901C156.658 107.629 156.909 107.178 156.737 106.422C156.737 106.422 157.441 106.765 158.078 106.264C158.842 105.663 158.403 104.634 158.403 104.634C158.403 104.634 159.197 104.957 159.756 104.313C160.315 103.67 159.824 102.772 159.175 101.808C158.525 100.843 157.73 100.013 156.438 99.6583C155.146 99.3035 154.23 99.7569 154.23 99.7569C154.23 99.7569 153.914 98.2715 150.64 96.3385C147.367 94.407 145.092 94.8354 145.092 94.8354L145.091 94.8368Z" fill="white"/>
</g>
<defs>
<clipPath id="clip0_969_18700">
<rect width="80" height="54.034" fill="white" transform="translate(80 68.9829)"/>
</clipPath>
</defs>
</svg>
