<svg width="240" height="160" viewBox="0 0 240 160" fill="none" xmlns="http://www.w3.org/2000/svg">
<rect width="240" height="160" fill="#F6F6F6"/>
<g clip-path="url(#clip0_969_18702)">
<path d="M122.727 86.2045C138.516 86.9084 151.024 84.9343 152.893 79.1955C154.759 73.4568 152.015 66.746 149.639 63.8263C147.264 60.9066 144.767 58.9289 141.966 58.5937C139.728 58.3259 137.831 58.5937 137.938 60.4039C138.067 62.5879 141.373 66.8102 139.952 67.7681C139.161 68.3009 138.441 66.8994 137.938 65.5305C136.976 62.9125 136.352 60.897 134.626 59.0139C132.164 56.3287 129.447 53.8865 124.736 53.2232C120.025 52.5599 117.274 53.3191 116.955 54.8962C116.637 56.4733 117.69 57.1896 119.264 60.4039C119.7 61.2912 120.305 62.3704 120.528 63.713C120.528 65.0283 118.903 64.7197 118.023 63.5165C117.142 62.3134 116.83 61.7264 116.009 60.4039C114.386 57.7912 110.642 54.9262 106.175 54.5945C101.708 54.2629 98.0802 55.6636 97.7723 56.9091C97.4643 58.1546 100.826 60.5644 101.793 62.3197C102.385 63.3958 102.135 64.0256 101.258 64.0256C100.13 63.9621 99.7545 62.4485 97.2123 61.2789C94.6701 60.1092 90.3346 61.9122 89.0628 63.0201C87.9293 64.0062 86.3154 65.5657 85.9792 68.9264C85.643 72.2854 87.1037 73.4144 89.8809 75.7343C92.6567 78.0541 96.4737 80.3651 99.1929 81.5436C101.912 82.722 106.941 85.4988 122.73 86.2045H122.727Z" fill="white"/>
<path d="M110.578 77.959C109.732 81.9854 107.154 94.0765 105.088 101.861C104.949 102.383 104.378 102.659 103.877 102.452C102.889 102.044 101.2 101.52 99.2437 101.641C96.1203 101.833 95.6312 103.091 98.6579 104.541C101.042 105.683 105.85 106.646 107.783 107.002C108.25 107.088 108.702 106.799 108.813 106.343C109.805 102.322 114.214 84.5043 115.434 80.7105C115.55 80.3513 115.423 79.9582 115.116 79.7329L111.984 77.4275C111.461 77.0418 110.71 77.3244 110.578 77.956V77.959Z" fill="white"/>
<path d="M127.317 79.2931L133.001 100.192C133.001 100.192 133.271 100.996 134.487 100.862C135.703 100.728 145.624 98.0341 145.624 98.0341C145.624 98.0341 146.905 100.981 147.55 101.198C149.404 101.818 149.461 99.758 148.851 96.9977C148.442 95.1412 147.846 93.7382 147.498 93.0183C147.345 92.7003 146.988 92.531 146.642 92.6105L137.12 94.7982C136.985 94.8291 136.848 94.7555 136.801 94.6274C136.264 93.1773 133.316 84.9831 132.44 77.6016L127.314 79.2946L127.317 79.2931Z" fill="white"/>
<path d="M111.279 73.9237C112.345 73.9237 113.21 72.9218 113.21 71.686C113.21 70.4501 112.345 69.4482 111.279 69.4482C110.212 69.4482 109.348 70.4501 109.348 71.686C109.348 72.9218 110.212 73.9237 111.279 73.9237Z" fill="white"/>
<path d="M127.183 73.9237C128.25 73.9237 129.114 72.9218 129.114 71.686C129.114 70.4501 128.25 69.4482 127.183 69.4482C126.117 69.4482 125.252 70.4501 125.252 71.686C125.252 72.9218 126.117 73.9237 127.183 73.9237Z" fill="white"/>
<path d="M107.08 76.309C107.634 76.1353 108.187 76.0234 108.971 75.7893C109.192 76.0602 111.018 79.8393 121.976 79.564C127.756 79.405 130.95 75.4463 130.95 75.4463L133.329 76.3105L132.867 76.8508L131.242 76.2059C131.242 76.2059 128.729 79.8879 122.352 80.2662C115.054 80.6991 110.029 78.6159 108.697 76.4415L107.505 76.7551L107.078 76.3119L107.08 76.309Z" fill="white"/>
<path d="M130.989 80.4326C130.612 78.2965 129.081 77.8828 129.081 77.8828L125.469 79.3948C125.469 79.3948 125.496 80.1588 125.579 80.5843C125.662 81.0097 125.802 82.8191 127.785 83.2063C129.77 83.592 131.363 82.5688 130.989 80.4326ZM127.424 79.1563C127.424 79.1563 127.184 78.1051 127.709 78.9781C128.488 80.2766 128.834 81.9034 128.881 81.974C127.272 80.6137 127.424 79.1563 127.424 79.1563Z" fill="white"/>
<path d="M97.8293 77.1748L95.5815 74.7324C95.5815 74.7324 92.9993 81.6326 88.0652 81.7121C88.0652 81.7121 86.9829 78.5086 84.9329 78.4144C82.8828 78.3201 81.1464 78.6838 80.8179 79.1431C80.4879 79.6024 80.195 80.1633 80.8997 80.4681C80.8997 80.4681 79.9824 80.8229 80.0003 81.7386C80.0136 82.3937 80.3377 82.8427 81.1568 83.0238C81.1568 83.0238 80.4968 83.5405 80.6945 84.3826C80.9309 85.3926 82.1395 85.4426 82.1395 85.4426C82.1395 85.4426 81.4601 86.055 81.8318 86.8868C82.2034 87.7171 83.308 87.6612 84.5478 87.4801C85.7892 87.299 86.9651 86.9192 87.9061 85.843C88.8471 84.7669 88.8234 83.6819 88.8234 83.6819C88.8234 83.6819 90.4215 84.0602 93.814 81.8092C97.2064 79.5568 97.8308 77.1792 97.8308 77.1792L97.8293 77.1748Z" fill="white"/>
<path d="M145.091 78.8368L143.91 81.6914C143.91 81.6914 150.818 81.0893 152.858 85.1776C152.858 85.1776 150.564 87.3623 151.303 89.1113C152.042 90.8602 153.045 92.1646 153.569 92.2559C154.092 92.3471 154.687 92.3677 154.664 91.6582C154.664 91.6582 155.333 92.2824 156.105 91.9011C156.658 91.6287 156.909 91.1782 156.737 90.4215C156.737 90.4215 157.441 90.7645 158.078 90.264C158.842 89.6633 158.403 88.6343 158.403 88.6343C158.403 88.6343 159.197 88.9567 159.756 88.3133C160.315 87.67 159.824 86.772 159.175 85.8077C158.525 84.8434 157.73 84.0131 156.438 83.6583C155.146 83.3035 154.23 83.7569 154.23 83.7569C154.23 83.7569 153.914 82.2715 150.64 80.3385C147.367 78.407 145.092 78.8354 145.092 78.8354L145.091 78.8368Z" fill="white"/>
</g>
<defs>
<clipPath id="clip0_969_18702">
<rect width="80" height="54.034" fill="white" transform="translate(80 52.9829)"/>
</clipPath>
</defs>
</svg>
